<mxfile host="app.diagrams.net" agent="Mozilla/5.0 (Macintosh; Intel Mac OS X 10_15_7) AppleWebKit/537.36 (KHTML, like Gecko) Chrome/131.0.0.0 Safari/537.36" version="24.9.1">
  <diagram name="Page-1" id="Htoc3a5Afda6pvUZ6DoV">
    <mxGraphModel dx="3260" dy="1535" grid="0" gridSize="10" guides="1" tooltips="1" connect="1" arrows="1" fold="1" page="0" pageScale="1" pageWidth="850" pageHeight="1100" math="0" shadow="0">
      <root>
        <mxCell id="0" />
        <mxCell id="1" parent="0" />
        <mxCell id="YTSxPM5Wz544t_zODTS--6" value="&lt;font style=&quot;font-size: 24px;&quot;&gt;admin&lt;/font&gt;" style="rounded=0;whiteSpace=wrap;html=1;" vertex="1" parent="1">
          <mxGeometry x="979" y="780" width="120" height="60" as="geometry" />
        </mxCell>
        <mxCell id="YTSxPM5Wz544t_zODTS--7" value="&lt;span style=&quot;font-size: 24px;&quot;&gt;&lt;u&gt;&lt;b&gt;id&lt;/b&gt;&lt;/u&gt;&lt;/span&gt;" style="ellipse;whiteSpace=wrap;html=1;" vertex="1" parent="1">
          <mxGeometry x="795" y="622" width="91" height="46" as="geometry" />
        </mxCell>
        <mxCell id="YTSxPM5Wz544t_zODTS--8" value="&lt;font style=&quot;font-size: 24px;&quot;&gt;admin_name&lt;/font&gt;" style="ellipse;whiteSpace=wrap;html=1;" vertex="1" parent="1">
          <mxGeometry x="960" y="615.5" width="158" height="59" as="geometry" />
        </mxCell>
        <mxCell id="YTSxPM5Wz544t_zODTS--9" value="&lt;span style=&quot;font-size: 24px;&quot;&gt;admin_password&lt;/span&gt;" style="ellipse;whiteSpace=wrap;html=1;" vertex="1" parent="1">
          <mxGeometry x="1178" y="626.5" width="213" height="48" as="geometry" />
        </mxCell>
        <mxCell id="YTSxPM5Wz544t_zODTS--15" value="" style="endArrow=none;html=1;rounded=0;entryX=0.5;entryY=1;entryDx=0;entryDy=0;" edge="1" parent="1" target="YTSxPM5Wz544t_zODTS--9">
          <mxGeometry width="50" height="50" relative="1" as="geometry">
            <mxPoint x="1036" y="780" as="sourcePoint" />
            <mxPoint x="1284" y="678" as="targetPoint" />
          </mxGeometry>
        </mxCell>
        <mxCell id="YTSxPM5Wz544t_zODTS--16" value="" style="endArrow=none;html=1;rounded=0;entryX=0.5;entryY=1;entryDx=0;entryDy=0;" edge="1" parent="1" target="YTSxPM5Wz544t_zODTS--8">
          <mxGeometry width="50" height="50" relative="1" as="geometry">
            <mxPoint x="1039" y="780" as="sourcePoint" />
            <mxPoint x="1287" y="678" as="targetPoint" />
          </mxGeometry>
        </mxCell>
        <mxCell id="YTSxPM5Wz544t_zODTS--17" value="" style="endArrow=none;html=1;rounded=0;entryX=0.5;entryY=1;entryDx=0;entryDy=0;" edge="1" parent="1" target="YTSxPM5Wz544t_zODTS--7">
          <mxGeometry width="50" height="50" relative="1" as="geometry">
            <mxPoint x="1038" y="780" as="sourcePoint" />
            <mxPoint x="1286" y="678" as="targetPoint" />
          </mxGeometry>
        </mxCell>
        <mxCell id="YTSxPM5Wz544t_zODTS--18" value="&lt;font style=&quot;font-size: 24px;&quot;&gt;cat_infos&lt;/font&gt;" style="rounded=0;whiteSpace=wrap;html=1;" vertex="1" parent="1">
          <mxGeometry x="1780" y="780" width="120" height="60" as="geometry" />
        </mxCell>
        <mxCell id="YTSxPM5Wz544t_zODTS--19" value="&lt;span style=&quot;font-size: 24px;&quot;&gt;&lt;u&gt;&lt;b&gt;cat_id&lt;/b&gt;&lt;/u&gt;&lt;/span&gt;" style="ellipse;whiteSpace=wrap;html=1;" vertex="1" parent="1">
          <mxGeometry x="1514" y="628.5" width="91" height="46" as="geometry" />
        </mxCell>
        <mxCell id="YTSxPM5Wz544t_zODTS--20" value="&lt;span style=&quot;font-size: 24px;&quot;&gt;cat_race&lt;/span&gt;" style="ellipse;whiteSpace=wrap;html=1;" vertex="1" parent="1">
          <mxGeometry x="1657" y="627.5" width="142" height="48" as="geometry" />
        </mxCell>
        <mxCell id="YTSxPM5Wz544t_zODTS--21" value="&lt;span style=&quot;font-size: 24px;&quot;&gt;cat_name&lt;/span&gt;" style="ellipse;whiteSpace=wrap;html=1;" vertex="1" parent="1">
          <mxGeometry x="1851" y="628.5" width="142" height="48" as="geometry" />
        </mxCell>
        <mxCell id="YTSxPM5Wz544t_zODTS--22" value="&lt;span style=&quot;font-size: 24px;&quot;&gt;cat_sex&lt;/span&gt;" style="ellipse;whiteSpace=wrap;html=1;" vertex="1" parent="1">
          <mxGeometry x="2045" y="627.5" width="142" height="48" as="geometry" />
        </mxCell>
        <mxCell id="YTSxPM5Wz544t_zODTS--23" value="" style="endArrow=none;html=1;rounded=0;entryX=0.5;entryY=1;entryDx=0;entryDy=0;" edge="1" parent="1" target="YTSxPM5Wz544t_zODTS--19">
          <mxGeometry width="50" height="50" relative="1" as="geometry">
            <mxPoint x="1836" y="779.5" as="sourcePoint" />
            <mxPoint x="1836" y="674.5" as="targetPoint" />
          </mxGeometry>
        </mxCell>
        <mxCell id="YTSxPM5Wz544t_zODTS--24" value="" style="endArrow=none;html=1;rounded=0;entryX=0.5;entryY=1;entryDx=0;entryDy=0;" edge="1" parent="1" target="YTSxPM5Wz544t_zODTS--20">
          <mxGeometry width="50" height="50" relative="1" as="geometry">
            <mxPoint x="1835" y="781.5" as="sourcePoint" />
            <mxPoint x="1835" y="676.5" as="targetPoint" />
          </mxGeometry>
        </mxCell>
        <mxCell id="YTSxPM5Wz544t_zODTS--25" value="" style="endArrow=none;html=1;rounded=0;entryX=0.5;entryY=1;entryDx=0;entryDy=0;" edge="1" parent="1" target="YTSxPM5Wz544t_zODTS--21">
          <mxGeometry width="50" height="50" relative="1" as="geometry">
            <mxPoint x="1834" y="777" as="sourcePoint" />
            <mxPoint x="1834" y="672" as="targetPoint" />
          </mxGeometry>
        </mxCell>
        <mxCell id="YTSxPM5Wz544t_zODTS--26" value="" style="endArrow=none;html=1;rounded=0;entryX=0.5;entryY=1;entryDx=0;entryDy=0;" edge="1" parent="1" target="YTSxPM5Wz544t_zODTS--22">
          <mxGeometry width="50" height="50" relative="1" as="geometry">
            <mxPoint x="1834" y="779.5" as="sourcePoint" />
            <mxPoint x="1834" y="674.5" as="targetPoint" />
          </mxGeometry>
        </mxCell>
        <mxCell id="YTSxPM5Wz544t_zODTS--29" value="&lt;font style=&quot;font-size: 24px;&quot;&gt;ISA&lt;/font&gt;" style="strokeWidth=2;html=1;shape=mxgraph.flowchart.extract_or_measurement;whiteSpace=wrap;" vertex="1" parent="1">
          <mxGeometry x="976" y="946" width="126" height="69" as="geometry" />
        </mxCell>
        <mxCell id="YTSxPM5Wz544t_zODTS--30" value="&lt;font style=&quot;font-size: 24px;&quot;&gt;employees&lt;/font&gt;" style="rounded=0;whiteSpace=wrap;html=1;" vertex="1" parent="1">
          <mxGeometry x="972.5" y="1280" width="133" height="60" as="geometry" />
        </mxCell>
        <mxCell id="YTSxPM5Wz544t_zODTS--31" value="&lt;span style=&quot;font-size: 24px;&quot;&gt;&lt;u&gt;&lt;b&gt;emp_id&lt;/b&gt;&lt;/u&gt;&lt;/span&gt;" style="ellipse;whiteSpace=wrap;html=1;" vertex="1" parent="1">
          <mxGeometry x="795" y="1005" width="101" height="49" as="geometry" />
        </mxCell>
        <mxCell id="YTSxPM5Wz544t_zODTS--32" value="&lt;span style=&quot;font-size: 24px;&quot;&gt;emp_name&lt;/span&gt;" style="ellipse;whiteSpace=wrap;html=1;" vertex="1" parent="1">
          <mxGeometry x="774.5" y="1226" width="142" height="48" as="geometry" />
        </mxCell>
        <mxCell id="YTSxPM5Wz544t_zODTS--33" value="&lt;span style=&quot;font-size: 24px;&quot;&gt;emp_position&lt;/span&gt;" style="ellipse;whiteSpace=wrap;html=1;" vertex="1" parent="1">
          <mxGeometry x="774.5" y="1318" width="157.5" height="58" as="geometry" />
        </mxCell>
        <mxCell id="YTSxPM5Wz544t_zODTS--34" value="&lt;span style=&quot;font-size: 24px;&quot;&gt;emp_salary&lt;/span&gt;" style="ellipse;whiteSpace=wrap;html=1;" vertex="1" parent="1">
          <mxGeometry x="774.5" y="1420" width="157.5" height="58" as="geometry" />
        </mxCell>
        <mxCell id="YTSxPM5Wz544t_zODTS--35" value="" style="endArrow=none;html=1;rounded=0;entryX=0.5;entryY=1;entryDx=0;entryDy=0;" edge="1" parent="1">
          <mxGeometry width="50" height="50" relative="1" as="geometry">
            <mxPoint x="1038.17" y="946" as="sourcePoint" />
            <mxPoint x="1038.17" y="841" as="targetPoint" />
          </mxGeometry>
        </mxCell>
        <mxCell id="YTSxPM5Wz544t_zODTS--36" value="" style="endArrow=none;html=1;rounded=0;entryX=0.5;entryY=1;entryDx=0;entryDy=0;exitX=0.5;exitY=0;exitDx=0;exitDy=0;" edge="1" parent="1" source="YTSxPM5Wz544t_zODTS--30">
          <mxGeometry width="50" height="50" relative="1" as="geometry">
            <mxPoint x="1038.17" y="1120" as="sourcePoint" />
            <mxPoint x="1038.17" y="1015" as="targetPoint" />
          </mxGeometry>
        </mxCell>
        <mxCell id="YTSxPM5Wz544t_zODTS--37" value="" style="endArrow=none;html=1;rounded=0;entryX=1;entryY=0.5;entryDx=0;entryDy=0;exitX=0;exitY=0.5;exitDx=0;exitDy=0;" edge="1" parent="1" source="YTSxPM5Wz544t_zODTS--30" target="YTSxPM5Wz544t_zODTS--83">
          <mxGeometry width="50" height="50" relative="1" as="geometry">
            <mxPoint x="1088" y="1274" as="sourcePoint" />
            <mxPoint x="891" y="1162" as="targetPoint" />
          </mxGeometry>
        </mxCell>
        <mxCell id="YTSxPM5Wz544t_zODTS--38" value="" style="endArrow=none;html=1;rounded=0;entryX=1;entryY=0.5;entryDx=0;entryDy=0;exitX=0;exitY=0.5;exitDx=0;exitDy=0;" edge="1" parent="1" target="YTSxPM5Wz544t_zODTS--32">
          <mxGeometry width="50" height="50" relative="1" as="geometry">
            <mxPoint x="973" y="1313" as="sourcePoint" />
            <mxPoint x="891" y="1165" as="targetPoint" />
          </mxGeometry>
        </mxCell>
        <mxCell id="YTSxPM5Wz544t_zODTS--39" value="" style="endArrow=none;html=1;rounded=0;entryX=1;entryY=0.5;entryDx=0;entryDy=0;" edge="1" parent="1" target="YTSxPM5Wz544t_zODTS--33">
          <mxGeometry width="50" height="50" relative="1" as="geometry">
            <mxPoint x="972" y="1313" as="sourcePoint" />
            <mxPoint x="926" y="1260" as="targetPoint" />
          </mxGeometry>
        </mxCell>
        <mxCell id="YTSxPM5Wz544t_zODTS--40" value="" style="endArrow=none;html=1;rounded=0;entryX=0.998;entryY=0.589;entryDx=0;entryDy=0;exitX=-0.006;exitY=0.578;exitDx=0;exitDy=0;exitPerimeter=0;entryPerimeter=0;" edge="1" parent="1" source="YTSxPM5Wz544t_zODTS--30" target="YTSxPM5Wz544t_zODTS--34">
          <mxGeometry width="50" height="50" relative="1" as="geometry">
            <mxPoint x="982" y="1323" as="sourcePoint" />
            <mxPoint x="942" y="1357" as="targetPoint" />
          </mxGeometry>
        </mxCell>
        <mxCell id="YTSxPM5Wz544t_zODTS--41" value="&lt;span style=&quot;font-size: 24px;&quot;&gt;&lt;u&gt;&lt;b&gt;record_id&lt;/b&gt;&lt;/u&gt;&lt;/span&gt;" style="ellipse;whiteSpace=wrap;html=1;" vertex="1" parent="1">
          <mxGeometry x="1347.75" y="1300" width="148" height="46" as="geometry" />
        </mxCell>
        <mxCell id="YTSxPM5Wz544t_zODTS--42" value="&lt;font style=&quot;font-size: 24px;&quot;&gt;cat_health_records&lt;/font&gt;" style="rounded=0;whiteSpace=wrap;html=1;" vertex="1" parent="1">
          <mxGeometry x="1589.75" y="1448" width="225" height="60" as="geometry" />
        </mxCell>
        <mxCell id="YTSxPM5Wz544t_zODTS--43" value="&lt;span style=&quot;font-size: 24px;&quot;&gt;&lt;u&gt;&lt;b&gt;&lt;i&gt;cat_id&lt;/i&gt;&lt;/b&gt;&lt;/u&gt;&lt;/span&gt;" style="ellipse;whiteSpace=wrap;html=1;" vertex="1" parent="1">
          <mxGeometry x="1376.25" y="1395" width="91" height="46" as="geometry" />
        </mxCell>
        <mxCell id="YTSxPM5Wz544t_zODTS--44" value="&lt;span style=&quot;font-size: 24px;&quot;&gt;health_check_date&lt;/span&gt;" style="ellipse;whiteSpace=wrap;html=1;" vertex="1" parent="1">
          <mxGeometry x="1304.25" y="1490" width="235" height="56" as="geometry" />
        </mxCell>
        <mxCell id="YTSxPM5Wz544t_zODTS--45" value="&lt;span style=&quot;font-size: 24px;&quot;&gt;weight&lt;/span&gt;" style="ellipse;whiteSpace=wrap;html=1;" vertex="1" parent="1">
          <mxGeometry x="1360.75" y="1595.5" width="122" height="43" as="geometry" />
        </mxCell>
        <mxCell id="YTSxPM5Wz544t_zODTS--46" value="&lt;span style=&quot;font-size: 24px;&quot;&gt;health_status&lt;/span&gt;" style="ellipse;whiteSpace=wrap;html=1;" vertex="1" parent="1">
          <mxGeometry x="1339.25" y="1688" width="165" height="53" as="geometry" />
        </mxCell>
        <mxCell id="YTSxPM5Wz544t_zODTS--47" value="&lt;span style=&quot;font-size: 24px;&quot;&gt;notes&lt;/span&gt;" style="ellipse;whiteSpace=wrap;html=1;" vertex="1" parent="1">
          <mxGeometry x="1364.25" y="1791" width="115" height="43" as="geometry" />
        </mxCell>
        <mxCell id="YTSxPM5Wz544t_zODTS--48" value="&lt;font style=&quot;font-size: 24px;&quot;&gt;contain&lt;/font&gt;" style="strokeWidth=2;html=1;shape=mxgraph.flowchart.decision;whiteSpace=wrap;" vertex="1" parent="1">
          <mxGeometry x="1629.5" y="941" width="138" height="92" as="geometry" />
        </mxCell>
        <mxCell id="YTSxPM5Wz544t_zODTS--49" value="" style="endArrow=none;html=1;rounded=0;exitX=0.5;exitY=0;exitDx=0;exitDy=0;exitPerimeter=0;entryX=0.5;entryY=1;entryDx=0;entryDy=0;" edge="1" parent="1" source="YTSxPM5Wz544t_zODTS--48" target="YTSxPM5Wz544t_zODTS--18">
          <mxGeometry width="50" height="50" relative="1" as="geometry">
            <mxPoint x="1704" y="933" as="sourcePoint" />
            <mxPoint x="1798" y="847" as="targetPoint" />
          </mxGeometry>
        </mxCell>
        <mxCell id="YTSxPM5Wz544t_zODTS--50" value="" style="endArrow=none;html=1;rounded=0;entryX=0.5;entryY=1;entryDx=0;entryDy=0;exitX=0.5;exitY=0;exitDx=0;exitDy=0;entryPerimeter=0;" edge="1" parent="1" source="YTSxPM5Wz544t_zODTS--42" target="YTSxPM5Wz544t_zODTS--48">
          <mxGeometry width="50" height="50" relative="1" as="geometry">
            <mxPoint x="1623.5" y="1204" as="sourcePoint" />
            <mxPoint x="1773.5" y="1091" as="targetPoint" />
          </mxGeometry>
        </mxCell>
        <mxCell id="YTSxPM5Wz544t_zODTS--51" value="" style="endArrow=none;html=1;rounded=0;entryX=1;entryY=0.5;entryDx=0;entryDy=0;exitX=0;exitY=0.5;exitDx=0;exitDy=0;" edge="1" parent="1" source="YTSxPM5Wz544t_zODTS--42" target="YTSxPM5Wz544t_zODTS--41">
          <mxGeometry width="50" height="50" relative="1" as="geometry">
            <mxPoint x="1712.75" y="1458" as="sourcePoint" />
            <mxPoint x="1708.75" y="1211" as="targetPoint" />
          </mxGeometry>
        </mxCell>
        <mxCell id="YTSxPM5Wz544t_zODTS--52" value="" style="endArrow=none;html=1;rounded=0;entryX=1;entryY=0.5;entryDx=0;entryDy=0;" edge="1" parent="1" target="YTSxPM5Wz544t_zODTS--43">
          <mxGeometry width="50" height="50" relative="1" as="geometry">
            <mxPoint x="1589.75" y="1479" as="sourcePoint" />
            <mxPoint x="1505.75" y="1333" as="targetPoint" />
          </mxGeometry>
        </mxCell>
        <mxCell id="YTSxPM5Wz544t_zODTS--54" value="" style="endArrow=none;html=1;rounded=0;entryX=1;entryY=0.5;entryDx=0;entryDy=0;exitX=0;exitY=0.5;exitDx=0;exitDy=0;" edge="1" parent="1" source="YTSxPM5Wz544t_zODTS--42" target="YTSxPM5Wz544t_zODTS--44">
          <mxGeometry width="50" height="50" relative="1" as="geometry">
            <mxPoint x="1599.75" y="1489" as="sourcePoint" />
            <mxPoint x="1476.75" y="1428" as="targetPoint" />
          </mxGeometry>
        </mxCell>
        <mxCell id="YTSxPM5Wz544t_zODTS--55" value="" style="endArrow=none;html=1;rounded=0;entryX=1;entryY=0.5;entryDx=0;entryDy=0;exitX=0;exitY=0.5;exitDx=0;exitDy=0;" edge="1" parent="1" source="YTSxPM5Wz544t_zODTS--42" target="YTSxPM5Wz544t_zODTS--45">
          <mxGeometry width="50" height="50" relative="1" as="geometry">
            <mxPoint x="1599.75" y="1488" as="sourcePoint" />
            <mxPoint x="1549.75" y="1528" as="targetPoint" />
          </mxGeometry>
        </mxCell>
        <mxCell id="YTSxPM5Wz544t_zODTS--56" value="" style="endArrow=none;html=1;rounded=0;entryX=1;entryY=0.5;entryDx=0;entryDy=0;exitX=0;exitY=0.5;exitDx=0;exitDy=0;" edge="1" parent="1" source="YTSxPM5Wz544t_zODTS--42" target="YTSxPM5Wz544t_zODTS--46">
          <mxGeometry width="50" height="50" relative="1" as="geometry">
            <mxPoint x="1599.75" y="1488" as="sourcePoint" />
            <mxPoint x="1492.75" y="1627" as="targetPoint" />
          </mxGeometry>
        </mxCell>
        <mxCell id="YTSxPM5Wz544t_zODTS--57" value="" style="endArrow=none;html=1;rounded=0;entryX=1;entryY=0.5;entryDx=0;entryDy=0;exitX=-0.001;exitY=0.613;exitDx=0;exitDy=0;exitPerimeter=0;" edge="1" parent="1" source="YTSxPM5Wz544t_zODTS--42" target="YTSxPM5Wz544t_zODTS--47">
          <mxGeometry width="50" height="50" relative="1" as="geometry">
            <mxPoint x="1599.75" y="1488" as="sourcePoint" />
            <mxPoint x="1514.75" y="1725" as="targetPoint" />
          </mxGeometry>
        </mxCell>
        <mxCell id="YTSxPM5Wz544t_zODTS--58" value="&lt;span style=&quot;font-size: 24px;&quot;&gt;cat_adoptions&lt;/span&gt;" style="rounded=0;whiteSpace=wrap;html=1;" vertex="1" parent="1">
          <mxGeometry x="1891" y="1348" width="188" height="51" as="geometry" />
        </mxCell>
        <mxCell id="YTSxPM5Wz544t_zODTS--61" value="&lt;span style=&quot;font-size: 24px;&quot;&gt;&lt;u&gt;&lt;b&gt;adoption_id&lt;/b&gt;&lt;/u&gt;&lt;/span&gt;" style="ellipse;whiteSpace=wrap;html=1;" vertex="1" parent="1">
          <mxGeometry x="2169" y="1197" width="197" height="48.5" as="geometry" />
        </mxCell>
        <mxCell id="YTSxPM5Wz544t_zODTS--62" value="&lt;span style=&quot;font-size: 24px;&quot;&gt;&lt;u&gt;&lt;b&gt;&lt;i&gt;cat_id&lt;/i&gt;&lt;/b&gt;&lt;/u&gt;&lt;/span&gt;" style="ellipse;whiteSpace=wrap;html=1;" vertex="1" parent="1">
          <mxGeometry x="2222" y="1290.5" width="91" height="46" as="geometry" />
        </mxCell>
        <mxCell id="YTSxPM5Wz544t_zODTS--63" value="&lt;span style=&quot;font-size: 24px;&quot;&gt;adopted_by&lt;/span&gt;" style="ellipse;whiteSpace=wrap;html=1;" vertex="1" parent="1">
          <mxGeometry x="2172" y="1381.5" width="191" height="50" as="geometry" />
        </mxCell>
        <mxCell id="YTSxPM5Wz544t_zODTS--64" value="&lt;span style=&quot;font-size: 24px;&quot;&gt;adopted_date&lt;/span&gt;" style="ellipse;whiteSpace=wrap;html=1;" vertex="1" parent="1">
          <mxGeometry x="2172" y="1476.5" width="191" height="50" as="geometry" />
        </mxCell>
        <mxCell id="YTSxPM5Wz544t_zODTS--65" value="&lt;span style=&quot;font-size: 24px;&quot;&gt;adoption_status&lt;/span&gt;" style="ellipse;whiteSpace=wrap;html=1;" vertex="1" parent="1">
          <mxGeometry x="2172" y="1571.5" width="191" height="50" as="geometry" />
        </mxCell>
        <mxCell id="YTSxPM5Wz544t_zODTS--66" value="&lt;font style=&quot;font-size: 24px;&quot;&gt;contain&lt;/font&gt;" style="strokeWidth=2;html=1;shape=mxgraph.flowchart.decision;whiteSpace=wrap;" vertex="1" parent="1">
          <mxGeometry x="1913" y="938.25" width="138" height="92" as="geometry" />
        </mxCell>
        <mxCell id="YTSxPM5Wz544t_zODTS--67" value="" style="endArrow=none;html=1;rounded=0;exitX=0.5;exitY=0;exitDx=0;exitDy=0;exitPerimeter=0;entryX=0.5;entryY=1;entryDx=0;entryDy=0;" edge="1" parent="1" source="YTSxPM5Wz544t_zODTS--66" target="YTSxPM5Wz544t_zODTS--18">
          <mxGeometry width="50" height="50" relative="1" as="geometry">
            <mxPoint x="2086" y="945" as="sourcePoint" />
            <mxPoint x="1840" y="840" as="targetPoint" />
          </mxGeometry>
        </mxCell>
        <mxCell id="YTSxPM5Wz544t_zODTS--68" value="" style="endArrow=none;html=1;rounded=0;exitX=0.5;exitY=0;exitDx=0;exitDy=0;entryX=0.5;entryY=1;entryDx=0;entryDy=0;entryPerimeter=0;" edge="1" parent="1" source="YTSxPM5Wz544t_zODTS--58" target="YTSxPM5Wz544t_zODTS--66">
          <mxGeometry width="50" height="50" relative="1" as="geometry">
            <mxPoint x="2218" y="1199.75" as="sourcePoint" />
            <mxPoint x="1832" y="1098.75" as="targetPoint" />
          </mxGeometry>
        </mxCell>
        <mxCell id="YTSxPM5Wz544t_zODTS--69" value="" style="endArrow=none;html=1;rounded=0;entryX=0;entryY=0.5;entryDx=0;entryDy=0;exitX=1;exitY=0.5;exitDx=0;exitDy=0;" edge="1" parent="1" source="YTSxPM5Wz544t_zODTS--58" target="YTSxPM5Wz544t_zODTS--61">
          <mxGeometry width="50" height="50" relative="1" as="geometry">
            <mxPoint x="2132" y="1381.5" as="sourcePoint" />
            <mxPoint x="2038" y="1226.5" as="targetPoint" />
          </mxGeometry>
        </mxCell>
        <mxCell id="YTSxPM5Wz544t_zODTS--70" value="" style="endArrow=none;html=1;rounded=0;entryX=0;entryY=0.5;entryDx=0;entryDy=0;exitX=1;exitY=0.5;exitDx=0;exitDy=0;" edge="1" parent="1" source="YTSxPM5Wz544t_zODTS--58" target="YTSxPM5Wz544t_zODTS--62">
          <mxGeometry width="50" height="50" relative="1" as="geometry">
            <mxPoint x="2089" y="1383.75" as="sourcePoint" />
            <mxPoint x="2179" y="1231.75" as="targetPoint" />
          </mxGeometry>
        </mxCell>
        <mxCell id="YTSxPM5Wz544t_zODTS--71" value="" style="endArrow=none;html=1;rounded=0;entryX=0;entryY=0.5;entryDx=0;entryDy=0;" edge="1" parent="1" target="YTSxPM5Wz544t_zODTS--63">
          <mxGeometry width="50" height="50" relative="1" as="geometry">
            <mxPoint x="2079" y="1371.75" as="sourcePoint" />
            <mxPoint x="2232" y="1323.75" as="targetPoint" />
          </mxGeometry>
        </mxCell>
        <mxCell id="YTSxPM5Wz544t_zODTS--72" value="" style="endArrow=none;html=1;rounded=0;entryX=0;entryY=0.5;entryDx=0;entryDy=0;exitX=1;exitY=0.5;exitDx=0;exitDy=0;" edge="1" parent="1" source="YTSxPM5Wz544t_zODTS--58" target="YTSxPM5Wz544t_zODTS--64">
          <mxGeometry width="50" height="50" relative="1" as="geometry">
            <mxPoint x="2089" y="1381.75" as="sourcePoint" />
            <mxPoint x="2182" y="1416.75" as="targetPoint" />
          </mxGeometry>
        </mxCell>
        <mxCell id="YTSxPM5Wz544t_zODTS--73" value="" style="endArrow=none;html=1;rounded=0;entryX=0;entryY=0.5;entryDx=0;entryDy=0;exitX=1;exitY=0.5;exitDx=0;exitDy=0;" edge="1" parent="1" source="YTSxPM5Wz544t_zODTS--58" target="YTSxPM5Wz544t_zODTS--65">
          <mxGeometry width="50" height="50" relative="1" as="geometry">
            <mxPoint x="2099" y="1391.75" as="sourcePoint" />
            <mxPoint x="2192" y="1426.75" as="targetPoint" />
          </mxGeometry>
        </mxCell>
        <mxCell id="YTSxPM5Wz544t_zODTS--74" value="&lt;span style=&quot;font-size: 24px;&quot;&gt;financial_records&lt;/span&gt;" style="rounded=0;whiteSpace=wrap;html=1;" vertex="1" parent="1">
          <mxGeometry x="1099" y="2010.25" width="198" height="51.5" as="geometry" />
        </mxCell>
        <mxCell id="YTSxPM5Wz544t_zODTS--75" value="&lt;span style=&quot;font-size: 24px;&quot;&gt;amount&lt;/span&gt;" style="ellipse;whiteSpace=wrap;html=1;" vertex="1" parent="1">
          <mxGeometry x="762.75" y="1857" width="149" height="44" as="geometry" />
        </mxCell>
        <mxCell id="YTSxPM5Wz544t_zODTS--76" value="&lt;span style=&quot;font-size: 24px;&quot;&gt;person_name&lt;/span&gt;" style="ellipse;whiteSpace=wrap;html=1;" vertex="1" parent="1">
          <mxGeometry x="740.75" y="1934.75" width="199" height="58" as="geometry" />
        </mxCell>
        <mxCell id="YTSxPM5Wz544t_zODTS--77" value="&lt;span style=&quot;font-size: 24px;&quot;&gt;income_expense&lt;/span&gt;" style="ellipse;whiteSpace=wrap;html=1;" vertex="1" parent="1">
          <mxGeometry x="744.75" y="2026.75" width="221" height="62" as="geometry" />
        </mxCell>
        <mxCell id="YTSxPM5Wz544t_zODTS--78" value="&lt;span style=&quot;font-size: 24px;&quot;&gt;type&lt;/span&gt;" style="ellipse;whiteSpace=wrap;html=1;" vertex="1" parent="1">
          <mxGeometry x="801.75" y="2122.75" width="107" height="50" as="geometry" />
        </mxCell>
        <mxCell id="YTSxPM5Wz544t_zODTS--83" value="&lt;span style=&quot;font-size: 24px;&quot;&gt;&lt;u&gt;&lt;b&gt;&lt;i&gt;id&lt;/i&gt;&lt;/b&gt;&lt;/u&gt;&lt;/span&gt;" style="ellipse;whiteSpace=wrap;html=1;" vertex="1" parent="1">
          <mxGeometry x="795" y="1132" width="91" height="46" as="geometry" />
        </mxCell>
        <mxCell id="YTSxPM5Wz544t_zODTS--85" value="" style="endArrow=none;html=1;rounded=0;entryX=1;entryY=0.5;entryDx=0;entryDy=0;exitX=0;exitY=0.5;exitDx=0;exitDy=0;" edge="1" parent="1" source="YTSxPM5Wz544t_zODTS--30" target="YTSxPM5Wz544t_zODTS--31">
          <mxGeometry width="50" height="50" relative="1" as="geometry">
            <mxPoint x="983" y="1320" as="sourcePoint" />
            <mxPoint x="896" y="1165" as="targetPoint" />
          </mxGeometry>
        </mxCell>
        <mxCell id="YTSxPM5Wz544t_zODTS--86" value="&lt;font style=&quot;font-size: 24px;&quot;&gt;triggers&lt;/font&gt;" style="rounded=0;whiteSpace=wrap;html=1;" vertex="1" parent="1">
          <mxGeometry x="1913" y="2008" width="155.5" height="56" as="geometry" />
        </mxCell>
        <mxCell id="YTSxPM5Wz544t_zODTS--87" value="&lt;font style=&quot;font-size: 24px;&quot;&gt;before_cat_adopted&lt;/font&gt;" style="strokeWidth=2;html=1;shape=mxgraph.flowchart.decision;whiteSpace=wrap;" vertex="1" parent="1">
          <mxGeometry x="1828" y="1732" width="328" height="105" as="geometry" />
        </mxCell>
        <mxCell id="YTSxPM5Wz544t_zODTS--88" value="" style="endArrow=none;html=1;rounded=0;exitX=0.5;exitY=0;exitDx=0;exitDy=0;entryX=0.5;entryY=1;entryDx=0;entryDy=0;exitPerimeter=0;" edge="1" parent="1" source="YTSxPM5Wz544t_zODTS--87" target="YTSxPM5Wz544t_zODTS--58">
          <mxGeometry width="50" height="50" relative="1" as="geometry">
            <mxPoint x="1990" y="1791.7500000000005" as="sourcePoint" />
            <mxPoint x="1990" y="1099.75" as="targetPoint" />
          </mxGeometry>
        </mxCell>
        <mxCell id="YTSxPM5Wz544t_zODTS--89" value="" style="endArrow=none;html=1;rounded=0;exitX=0.5;exitY=0;exitDx=0;exitDy=0;entryX=0.5;entryY=1;entryDx=0;entryDy=0;entryPerimeter=0;" edge="1" parent="1" source="YTSxPM5Wz544t_zODTS--86" target="YTSxPM5Wz544t_zODTS--87">
          <mxGeometry width="50" height="50" relative="1" as="geometry">
            <mxPoint x="2002" y="1742" as="sourcePoint" />
            <mxPoint x="1997" y="1349" as="targetPoint" />
          </mxGeometry>
        </mxCell>
        <mxCell id="YTSxPM5Wz544t_zODTS--90" value="&lt;font style=&quot;font-size: 24px;&quot;&gt;after_cat_adopted&lt;/font&gt;" style="strokeWidth=2;html=1;shape=mxgraph.flowchart.decision;whiteSpace=wrap;" vertex="1" parent="1">
          <mxGeometry x="1411" y="1983.5" width="328" height="105" as="geometry" />
        </mxCell>
        <mxCell id="YTSxPM5Wz544t_zODTS--91" value="" style="endArrow=none;html=1;rounded=0;exitX=0;exitY=0.5;exitDx=0;exitDy=0;entryX=1;entryY=0.5;entryDx=0;entryDy=0;entryPerimeter=0;" edge="1" parent="1" source="YTSxPM5Wz544t_zODTS--86" target="YTSxPM5Wz544t_zODTS--90">
          <mxGeometry width="50" height="50" relative="1" as="geometry">
            <mxPoint x="2001" y="2018" as="sourcePoint" />
            <mxPoint x="2002" y="1847" as="targetPoint" />
          </mxGeometry>
        </mxCell>
        <mxCell id="YTSxPM5Wz544t_zODTS--92" value="" style="endArrow=none;html=1;rounded=0;exitX=1;exitY=0.5;exitDx=0;exitDy=0;entryX=0;entryY=0.5;entryDx=0;entryDy=0;entryPerimeter=0;" edge="1" parent="1" source="YTSxPM5Wz544t_zODTS--74" target="YTSxPM5Wz544t_zODTS--90">
          <mxGeometry width="50" height="50" relative="1" as="geometry">
            <mxPoint x="1923" y="2046" as="sourcePoint" />
            <mxPoint x="1749" y="2046" as="targetPoint" />
          </mxGeometry>
        </mxCell>
        <mxCell id="YTSxPM5Wz544t_zODTS--93" value="" style="endArrow=none;html=1;rounded=0;entryX=1;entryY=0.5;entryDx=0;entryDy=0;exitX=0;exitY=0.5;exitDx=0;exitDy=0;" edge="1" parent="1" source="YTSxPM5Wz544t_zODTS--74" target="YTSxPM5Wz544t_zODTS--75">
          <mxGeometry width="50" height="50" relative="1" as="geometry">
            <mxPoint x="983" y="1320" as="sourcePoint" />
            <mxPoint x="906" y="1039" as="targetPoint" />
          </mxGeometry>
        </mxCell>
        <mxCell id="YTSxPM5Wz544t_zODTS--94" value="" style="endArrow=none;html=1;rounded=0;entryX=1;entryY=0.5;entryDx=0;entryDy=0;exitX=0;exitY=0.5;exitDx=0;exitDy=0;" edge="1" parent="1" source="YTSxPM5Wz544t_zODTS--74" target="YTSxPM5Wz544t_zODTS--76">
          <mxGeometry width="50" height="50" relative="1" as="geometry">
            <mxPoint x="1109" y="2046" as="sourcePoint" />
            <mxPoint x="922" y="1889" as="targetPoint" />
          </mxGeometry>
        </mxCell>
        <mxCell id="YTSxPM5Wz544t_zODTS--95" value="" style="endArrow=none;html=1;rounded=0;entryX=1;entryY=0.5;entryDx=0;entryDy=0;exitX=0;exitY=0.5;exitDx=0;exitDy=0;" edge="1" parent="1" source="YTSxPM5Wz544t_zODTS--74" target="YTSxPM5Wz544t_zODTS--77">
          <mxGeometry width="50" height="50" relative="1" as="geometry">
            <mxPoint x="1109" y="2046" as="sourcePoint" />
            <mxPoint x="950" y="1974" as="targetPoint" />
          </mxGeometry>
        </mxCell>
        <mxCell id="YTSxPM5Wz544t_zODTS--96" value="" style="endArrow=none;html=1;rounded=0;entryX=1;entryY=0.5;entryDx=0;entryDy=0;exitX=0;exitY=0.5;exitDx=0;exitDy=0;" edge="1" parent="1" source="YTSxPM5Wz544t_zODTS--74" target="YTSxPM5Wz544t_zODTS--78">
          <mxGeometry width="50" height="50" relative="1" as="geometry">
            <mxPoint x="1109" y="2046" as="sourcePoint" />
            <mxPoint x="976" y="2068" as="targetPoint" />
          </mxGeometry>
        </mxCell>
        <mxCell id="YTSxPM5Wz544t_zODTS--97" value="&lt;span style=&quot;font-size: 24px;&quot;&gt;in_charge_of&lt;/span&gt;" style="strokeWidth=2;html=1;shape=mxgraph.flowchart.decision;whiteSpace=wrap;" vertex="1" parent="1">
          <mxGeometry x="1060.25" y="1739.5" width="275.5" height="90" as="geometry" />
        </mxCell>
        <mxCell id="YTSxPM5Wz544t_zODTS--98" value="" style="endArrow=none;html=1;rounded=0;entryX=0.5;entryY=1;entryDx=0;entryDy=0;exitX=0.5;exitY=0;exitDx=0;exitDy=0;exitPerimeter=0;" edge="1" parent="1" source="YTSxPM5Wz544t_zODTS--97" target="YTSxPM5Wz544t_zODTS--30">
          <mxGeometry width="50" height="50" relative="1" as="geometry">
            <mxPoint x="1049" y="1290" as="sourcePoint" />
            <mxPoint x="1048.17" y="1025" as="targetPoint" />
          </mxGeometry>
        </mxCell>
        <mxCell id="YTSxPM5Wz544t_zODTS--99" value="" style="endArrow=none;html=1;rounded=0;exitX=0.5;exitY=0;exitDx=0;exitDy=0;entryX=0.5;entryY=1;entryDx=0;entryDy=0;entryPerimeter=0;" edge="1" parent="1" source="YTSxPM5Wz544t_zODTS--74" target="YTSxPM5Wz544t_zODTS--97">
          <mxGeometry width="50" height="50" relative="1" as="geometry">
            <mxPoint x="2002" y="1742" as="sourcePoint" />
            <mxPoint x="1997" y="1349" as="targetPoint" />
          </mxGeometry>
        </mxCell>
        <mxCell id="YTSxPM5Wz544t_zODTS--100" value="&lt;span style=&quot;font-size: 24px;&quot;&gt;in_charge_of&lt;/span&gt;" style="strokeWidth=2;html=1;shape=mxgraph.flowchart.decision;whiteSpace=wrap;" vertex="1" parent="1">
          <mxGeometry x="1300.5" y="765" width="275.5" height="90" as="geometry" />
        </mxCell>
        <mxCell id="YTSxPM5Wz544t_zODTS--101" value="" style="endArrow=none;html=1;rounded=0;entryX=1;entryY=0.5;entryDx=0;entryDy=0;exitX=0;exitY=0.5;exitDx=0;exitDy=0;exitPerimeter=0;" edge="1" parent="1" source="YTSxPM5Wz544t_zODTS--100" target="YTSxPM5Wz544t_zODTS--30">
          <mxGeometry width="50" height="50" relative="1" as="geometry">
            <mxPoint x="1208" y="1750" as="sourcePoint" />
            <mxPoint x="1049" y="1350" as="targetPoint" />
          </mxGeometry>
        </mxCell>
        <mxCell id="YTSxPM5Wz544t_zODTS--102" value="" style="endArrow=none;html=1;rounded=0;entryX=0;entryY=0.5;entryDx=0;entryDy=0;exitX=1;exitY=0.5;exitDx=0;exitDy=0;exitPerimeter=0;" edge="1" parent="1" source="YTSxPM5Wz544t_zODTS--100" target="YTSxPM5Wz544t_zODTS--18">
          <mxGeometry width="50" height="50" relative="1" as="geometry">
            <mxPoint x="1311" y="820" as="sourcePoint" />
            <mxPoint x="1116" y="1320" as="targetPoint" />
          </mxGeometry>
        </mxCell>
        <mxCell id="YTSxPM5Wz544t_zODTS--104" value="" style="shape=image;verticalLabelPosition=bottom;labelBackgroundColor=default;verticalAlign=top;aspect=fixed;imageAspect=0;image=data:image/png,iVBORw0KGgoAAAANSUhEUgAAATYAAAEqCAYAAACfqHxJAAAAAXNSR0IArs4c6QAAIABJREFUeF7sfQeYVdXV9trl9Fum05sobQQsKGisiRVFBR2siZpiYgwqgmJNRrFgCcYQ/RJjDDYURoO9x14RFcXBKCC9zTBz57ZTd/m/Myb5ky8ap9w7M8Ihz5M8xr1Xede+L/usvfbaCKI/EQIRAhECOxgCaAfzJ3InQiBCIEIAImKLFkGEQITADodARGw7XEgjhyIEIgQiYovWQIRAhMAOh0BEbDtcSCOHIgQiBCJii9ZAhECEwA6HQERsO1xII4ciBCIEImKL1kCEQITADodARGw7XEgjhyIEIgQiYovWQIRAhMAOh0BEbDtcSCOHIgQiBCJii9ZAhECEwA6HQERs39KQ1tbW4oPhFRzfPAx9kUqJqXV1/FvqSmR2hEDBEYiIreCQFlfgy7VnlZRwmKhKb5SOYAyVvIIgkspyeKMl4K+5VsO7h9a+woprRSQ9QqBnIxARW8+Oz79Z997l3989LtmTcRUNYvk8mCoBKjg4tgdqLAkupjzPcVNaipsENu4ff/1dDQhAfotcjEyNECgIAhGxFQTG4gv5YPop43pp4nlg2dJYzISc6wGRAIQxwFgBiQjolgnpdDMgIgGrqrvV9m5h+cHXjLvzzqD4FkYaIgR6DgIRsfWcWHytJcsu+8mwKsi/jf1UmWoQyHkuMGoEAinvEgQ+5lAFnI0QvkurYhYwPw+USshKDFmz9PHGFD9l/1vrnG+Bq5GJEQIFQSAitoLAWDwhr196bulAbL9JeXYkwgGApkGz729rzPsnQan7zqtwiDh282YSJLbtVU7pWWVYPVkGXqnDHcAqARdxcEF/xRX0hHE31qWLZ2kkOUKg5yAQEVvPicV/WLL0D+coxjp7QTzInaRTAT4hsMl1Pld69ztir5l/Wvd/J8jaWrysZVkipugXK0RcEjMI9d0MIEzBQcaTW/N8arRz68EBj0wrGAIRsRUMysILWnLplJNLhPNQuUYAcwxNAtJbFes7B8x+sP6/aQsJ7tNc/dlWYN8eUxUNEw454YMwrYX1Tc6ZE+c94xXe2khihEDPQSAitp4Ti3+z5PVLTysdRNwVKnJ6m6oCDQ0Z6SWqflB9/aL722JySG6rcitOS2DxJ+GmVDOBIct88HDs4c+y4oyI3NqCYjTm24pARGw9MHISAK28ZPINvZRglsNsyHk+6CX9HlkJ205pT41aWMQ7peWjUwcm4C63ZaOONQV8PQE5bN6V21Lx8+i0tAcGPzKpIAhExFYQGAsr5K9X1PQbxrxVVpDViaFBimN3O4/vPu7mhavbqyncub2//bXzdi0xfs29vBIQBWykCJdrl36yhs6Nbiy0F9Fo/LcBgYjYemCUPr7sxEursH8D8R0AQSGtJeYNvX7RBR0ttn259hDaKxOvrSDiUiQ4QZSAx4WfAuvM3W95+KEeCEFkUoRApxCIiK1T8BV+8qLaGnVMLv9ulUn2kD4Dz1fdrcgasdevF/zHKWh7tNfX1qg0Le6q1OQZkjlIkrDOTXM25JVJB93+8F/bIysaGyHQ0xGIiK2HReij2tP7V/rZtdLOEN0sBweZ961UNvywPbm1r3Pp6WlHa9VGfFFMOpM4EUhKDTCtSG3I5A/Ya94DK3oYFJE5EQIdRiAitg5DV5yJ78465sj+CD1rSQSeUGE7jp1cfeM9iwql7Y1LjotXAXowrsBEwgTirgq+Gl+Ss/IHVtfW+YXSE8mJEOhOBCJi6070v0L3p7NPmmGmc7ckmQpST8BnDI+dcMu9HxfSzNadW3nsNdXO7qsoFjRzJDJmbNq4X86/o5B6IlkRAt2FQERs3YX8V+gNyzyWXX7srX0QucDKYXCIztdoZb3G33B7U6HNfPPio4cOVOmHiAVxH2PIq7GmLQiPOaL2oc2F1hXJixDoagQiYutqxP+LvkU1NWTkcG9BX6xPxWkfuJ5IrzX0vuNq77SLYebSGUdc2ceAqxUhMYMYbHfhwdFzF5/e0dPXYtgYyYwQ6AgCEbF1BLUizQnLMir95LMVnH+P+AQCxVr9manufmjtfLcYKp+b+X1rN7XhPSvwR2JkgUBm4DL1mFzce7W+Hr6yI29NdbWE2loZkV8xIhLJLBQCEbEVCskCyAlLPfZiwTsJ5uwZ9lrLIv2dvK4eXMyk/pLpRx/cnwTPq0pC5SIsm8MZzxWfmIrFGRfcJlkRSCawQABEuAH2m5kIGhWhNwWMN/sMpbBmtOQymayCtKyCIe1JO2fwUbmwZXlNXV04c4dodhne5Di96V2lCZkDkWX0plIMVLk7SNeokmLBu5ZOXypmrAqwxHYaERGx9aBQPz1tmjY8ufGzOM8OwhIgDeoz63X7uEKUenydm+HNhC+c9x8ykFKDMIMgcMGkBqgeAcd2AGKCIxWDQggEzJU2y0kCSBpElwQo+L6PFF2TgkkpmQgJkLmMMyERDwhZ7XDYAqq23sZknW7F1tou32BLvjGeLm16sm9fXltbK3pQCP7DlDA90HtXKOuF5NEmk6dQ3z8IIalxIrGUHCwVY8e2gSaS3GZireuJi4bPfeqJHYXMe3Js/pttEbH1oMi9XHuWPjhIb4rzbBkKiQ0bC5fuqZ8+dWpxH2p59fxjd+sXp8stzDUSCNCBAAkIaIoBeYakE9gSpI00KhEhKlCsAHc4CBEA6BIYkUAIgBd29aUKSEKASw7U0EFgDC2ZHMSsGOQyeZk0kn62JevqqtoYIPpezjDf2dycfjO93VzWk653vTPt9IRK0keYCpyiMXa0JZEZoxT8wAGqKSAUCRJTcD0Ay0pAU1MDGFYc0rYTZI3EqXvNWfRID1paO50pEbH1oJD/ndhScZ7XkUSQQcrd9+jjflLsXU14GvvJ5VPuLKXBj1UnAANh4I6EvCOaApoUQLHA2AZVw4gFADLASDBBzWRM8ZCj+tgnSIQ/cwmKogATHpJMgKIQCIIAEEJgqCpgLsHP5CARS0g/74SihLRMZHPB3CDYzBXtqbTjP5pC6O2j5z3jd/WuZ+k55yhAt4yPSf9MnbLjDEWWYCRJTNUJEhhy2RwYsRj4REKe+SzHpI9JXFCCoVTVYogHEF5XW5dxtzQYydGH3XBvwU+ze9By7dGmRMTWg8Lzwqya5DDCt1kip31JbMZtg+c8Or0rfuDvXTpll1Li1ZuepyeoClLQjdsy7t4bevvNh9RXSqiulnX19aiyuhGFT/6lIGWqql6WJvmKsrJYhZPOVlYa8QqRyyZNgisx85OIBRUmpdWE4JAgNBSyQ2u+jQuEMMZIkJApBUgw4qWQcVzgEpyMY28jqv5YlolHVm9NvFXsnVx43WzLxtxxg8rM6Rqzx8VUqZo6gWy+GQhVgXMAhAzuceIxqi3LMvx4TrIXy33vE788JtNpIOVe+k4LwxlWPA4OpbAhwD8ZP+fBu3rQ8tqpTImIrQeF++WLz+q9i5JZZ3FbDQPTQvQbhl7/6OVdYaKUgD6YceQfBujoJyjwQTAqWzidNvy3T9/eEf3hLrCupgZXVwPxtnsVTLJdVUJHqQoaxkWwq0KUsUQGpRUaNWTgU0pUcDwXqIpB13WRy2Y4x5jlga7Lg7nAoYn7JsyZv65QJB8eBByRrtc4s8+vNLRzE0j2jamg8CAHgZ8HUDBwaoAjsGsH6BUf6fe6THnOSzZmvirnuWrm5CorcD/VNKXMxRhc3Vq4tN4/vdik3JHY7AxzImLrQVF+Y1bNwAEEVhvCplhyaEaxXw6b8/DsrjLxrUtrdu0HTcstxHSGk5CT2pYWjkYW+q2EMCEP1UAq0u5uquuPrYjHDpT59JGVJbF+wncJxoTYAQNFiwHWNGjJ5QGo4tqc/08A9KZ9b67b2l5MQqJ9pfYQYjaSJDX5PpamnCYFH9Y72Wd885bNUGboANIDFngSKSrPE2NNgwcLtvrGA++XjV79TemA8BBmY/rt501N+V4gAWyJlzmmNj46JW1vpAozPiK2wuBYEClvXHLG8P7UW2FyFwMS0ISNmSOvf/jXBRHeBiHhj3/VrMP/FCfsbJtTwEYZNGXcX+w997EO7draoLJ1SLh7GgX1dGCzPVrDwVEaJqfEzdhuILkmfAa6rgLCArK2I5Gi2WmX3Z6n+Lbv3PT4lq/bwYXkGevdmybVpvE6y+9dhvk4i7LRGPFqhBkWWABjEkSAIBEvAdtzwQm4bUt4JCXEXX6peKs9p9EhduunH7nQ1JUaKSUEgP7WohtjI2Jr6yoo7LiI2AqLZ6ekvTXr9NG9cP6jmOSIEASbuTZtzJy633VKaDsnL50xaUQv4n7EFKRSrAO4+AvXHTBqt3nzuuydhLBQWdtOv1em4bPjCI5TKDYkVYFxCbbvQzJZArlc1vMl/L5JwK1+3N7UWF8pdyn9Akttlz0JweNVle6NkTxIp2gQFh42MAI/nwadKKCrFFggWg81gAvwMRXNoDy1jcMVB99at7ydkLUOD23eLau/rmvKhFBuKp97tcXe9fCoS3FH0Oz8nIjYOo9hwSQsr/3BGCOfWmZIhhRDha1gTRsze0GXElvrru3KE+6Pqfy0IJcHI7CgQajfr77tkTa9tVAwMP6+kzu86bUhMUU9XyP0x6aqmuH7D26mGQwqgXMOkqg5zuVfeCD7YYTHxkwz7geCeMxHWNMIE7yVwMLTWhASEOOtp7MqUGACwCbEbmTBTGFX3dUZEnr3vMnlA3R3I8VSZ4CBUfV3A7Q9LkA9vE6vkPHqSbIiYutB0Xh9+jGH7RIzXtAlB4/70Ehjp46dvbDLO9y+duGxew22gndjgU9VSMJ2pn60PVeyT2d++J2F+dkLp/TpQ/iVJdj/UUIVGpYBMCcAgmNAFB2YcEHRMaSatgjTtCRVFMKEBFBMyDIGiJoAgAFxATFEAOU8SEvy6t+Icd5Rt/73V7/aYvunM044p69G/+C5NiDLgk2OP2WPWx5b3Ja50ZjCIxARW+Ex7bDE92cee3YlJncndAy2Y8MG0A8af/Njr3dYYAcnhjmvM5x3n+4F/EjGNXBVS24U9Lv7zLn/lQ6KLNi09y44arjKndmVJeaJqkBY8VSQXIDEPvjSlsmkyVKpBq4ZOgEgSsARYCMJjgDwwvemFRMEk8zPBbWbKlI3tieP9nVOfHDJKX0rpbfEBNkvvESbQ5DNIHPQmDkLUgVzPBLULgQiYmsXXMUdXD9r8i8rMVwtnBwwLEU60XdIde2964ur9aulfzR98lF9leBprCqoxXOBK/HFm9SGqYUggkL488bFpxxYpsCFVVIeQz2XBIHvCixbck7zh5qpvWcYagWA/ImhaIZth+lBHbCehAYPPksjesb4m+5bWgg7wtxaVSp2T6WhncZdB8xEHDbY/tzqWxbPLFRpSiHs3NlkRMTWgyL+2aWT5ie5OFPHGALp++85ONFd73+Gp4oTBosPhciNTiRi4Lo8+MIWow+47fHPehBk8M7FJ+5Gsul+SgBpZUBpPVm/WausLP21z/JnKgSrgeeBbibA8bFIM/WeTSx28WG3F+5GwIfnTzp+YEx9hHOfYKpCxvEaWmhsz71uivradec6iYitO9H/F91hZ499fW9jUshKzAKQKlmzanu/4d2Z1/p81g9+Wklafi+cNITZtowRu3XY1YtnINQzu3W8fu4xpb1jeKFq5w4rM3QUHhq4EsDTrQ9WZexpB/32qbcLuYt6a/qPyvri7R+Um3JQYy4HWLMAVPWkwdc8Et0T7ebfVURs3RyAf6hfOmvKMb3Be1IVPLyCHjZDe7neyh/RnZ9+b1zyw/hg2bjSIvleIUmkEW35QjWGHFr7aEsPga3VjPAk96WLT96zT1y5T8ulRyUJBp0qkM7bfgtWf+dkqi4t9F8Q4Sdo33zvP5bL3FkCPJAl5bDFdR76/DP1jOi2QfevjojYuj8GrT/MNbMmLkwCrxFEhQBUCLjyx4HGiJ91Z7lA6+X4q065tgrnLsctmyFWUgnrbfrT4Tc/dWcPgO1LUqutxcubl/04FkO/JZJrCnBAmMoMh20NvvjJAXOfeKqQu7R//kU0c8oxAyl6grhZROIlsAFwagMhYybWPrCxp2CzM9sREVsPiP5bV9T0G+xnVuPA1phmATJKYFvKu2yv2xbP6W7znptZM2Qwza8YRB3dbkmDq1d88lms7z7F6urbHn/DPOA+g+WMmPBviMUM3GK3gCAKZAF/vMHlpxz+m6c+bY+8to59q7amrMr13y+RbDAVBLKIwhbdPGPfa+5/oK0yonHFRSAituLi2ybpH11ec0WJn7221FQgwBi2uwIcUXLiHjfd95c2CSjioPBy/IqrJj9UkW+cmlAIpDzEm4yKiaPnPPx8EdW2SfRnV5x+psVzf9YQR8LlECAFbM18e03gnXDkLYsb2iSknYPCUphTnRW3xCCYrhMJQQCQV8xH71OHnfhN90nbqSoa3gkEImLrBHiFmBp2zR2orPu8d9IY6DktwBgDiJVBAzf22mf2vR8WQkdnZbxzyekTBsrtr8akr1IlBhts9mTWGTCl0Hmr9tj57lUnj03aqXcTGtJEEICmV0KjI55posrpBxaxfuzjmafuV+5nXzEsorpMgE+M9BYX77Hfbx5a2x77o7HFRSAituLi+43Sl82YemSlIp5l3AVMGSiSh33YZApKKsf3kEaFYQPGysrUu/HA2RPzAGzA+UYjtvfYa+u6pfTjrek1RrnuvZsk7mgkGTBEodFRFlmDdvnBbucX705r2Lct6eAlFrfHqhqFHEPQQpPThl/35y699vaNiyoaABGxdeMiCJPzK6eftKhfQj+p2U639iJTUAAtjLINelm8J+Sx/gHPuxed/NMq6s6LA1LygevbunHLiBsWX1mMxPx/C8nLtbW0T/NHtaaWvYJgB8JW5b4S27zFp2PG37C4qB1rl//imCt66WS2pREUtjsPzPgb21MV3+3OnWs3Lt8erToitm4Mz5szv1/Vl2XWl6mghe/rYQoghQdpgURK9uq3783z2913rFjuvFM7LaE621eUU9nPNHXYnE0/+9lqemxXlzbU/+yEfftT8RoqCbQAM8i5iDcAPXqfm55+oVi+h3I/vPCowQMo/oQDt4x4CWxtTDlBaZ99qmffU19MvZHsjiEQEVvHcCvIrKUXnnzuEFPcIfPNgKkBSCHAkA82KNDM6AF73vyXNwuiqEBCXrjsrCnlBOb5QU7nKprxndl18wskuk1iwjchqtMtbydFsEdgSGhiHthKYs6IGxZfXsydY/gJqqdaHqwy1SnhSw15rIKNzNpRcxZdU0y9bQIlGvSVCETE1k0LI8xblZflXotBbgJys2ApcQgf4MwJD7iqQXPeO2f32577YzeZ97VqH7vkh3HPzHpTa+v8rrbt82lHza6Kk8uE6xJEDUhJ5RXHokcWu5njivOPPy9pidt0KolgACmOVq3qP3j3iUXM53U1tjuavojYuimiy646szqWb3k/Rh3NVDCgLLyo6MYhKeFRrIcvOgV/enmV+dOu/tTrJji+Ue2Snx8/YAhxP2Y6K6GqBk4eN7WgxL5jbl3wxTdO7sSApeecWjG0DD52cb6Pwx1QwGKbAzR5/NzFT3ZCbDS1yAhExFZkgL9O/CcXn3hDGZGXgsyBTohrN+bP1FXzApS09nf9LICdrbdJyd67zXumyzrXdhMUbVL70ayTTqlys/cLgxDQTdaYh4v2uPnheW2a3MFBrS+/p/72+3KV/8RDWfAoAVtYt47UR83szhshHXRnp5oWEVs3hPvpaUdrgxX4vJehDHQDB1RF2epu5dXIoBcSk1wVthITLdtyG2Ry5Nh5z0RXdADg+UuO6zsQ6JuGqfVqyNhvNQ4eeEyxPwWXXFzTu8xln5cbSlxgG/KUNm4WFaMnXH/Xtm5YNpHKdiAQEVs7wCrU0LemTTp4aIn2V8pyBCkKrN245feCyvMN1Oeg0nLtWSryVPUdbwODU0f/9tWoC+vfgX/y0tNKzbwzMOFVruiKEotPpx1+dcIouYJKQTTsiw2Oe9bo375wX6HWQSSneAhExFY8bL9Scmvt2qUn3WEF6Z8piIGPiPCxeeguNz7+Wtg3v9zwV6ssZ1kKlQ2SPLgwtv/Z0VWdLg7S3x9n2T2jvYuotWfY/yhwciuyuw7bq5gFwF3v5Y6rMSK2Lo5tWDXfFwXrK+OywnHTwMFYlbFh9zCXFrbC6Z+zHq6KkYnZTJrk1cTzH63Wu7xWrIsh6ZHqVk47WitDfoOmKAkGSGZdOe/thvhF0WFOjwzXfxgVEVsXx+nDi6ZO7E+Cp5DIglQpbGfaNSNvfuxX/zDjlQsm7RMj7CFF1WgDgzMPv+XRbn9noIsh6hHqXjzve+XjNbqWYBFzOJc43vuaEjzsmujQoEeE5xuNiIjtGyEq3IDWU7bcsod6IVZj+znwY2Xss8Aac/hN9/1He51wbPQJWjjs2yvp3fO+Vz5Cx+sAhAWmAc0BXD1YHxcRW3uB7KbxEbF1IfAvX1zTe5CfX9PHorqkCnzh4rcbzeqDDq2tZV1oRqSqDQh88Ivj+g4k2dWGqenNrgO+WXbZLtcuvrGntkVvg0s71ZCI2Low3EtmTPn5UIve7mUbQYAOTUrivLE3LbyjC02IVLURgY9nnLB3H5l/GwmmqCVl8AUXP9pj9uK72zg9GtbNCETE1kUBCLu9jhrgvFyuw4FYSPCF5q4XctB3itQQsYvc2iHVtLZqv+q08+J2829jKkUZiWAdtg7b9/qH/rpDOrwDOhURWxcFdenFJw/tS+3PpPQJ0S1I5cgjy9fBydEpWxcFoB1qwnu8prXlsUqFHY08H7LUaNnSb7e++190q9MOMdHQbkQgIrYuAn/ZBRMv7auyGwLEw/5hsN3TT9jnloWPdZH6SE07EFgx47RBcc2vN2RgGUiBbZIsHHL9wlOj/Fo7QOzmoRGxdUEAwh1AVXnjhxWUV2eCPGRxLLWWq0MOv7Eu3QXqIxXtQCB89Wpl+oOrk6p6OQs8HE5t1hKTRt/wQHTpvR04dvfQiNi6IAJLLq7ZozfkPjAgQBwBpLE1/0F9zx9F5RxdAH47VYQ930bmU2sUTHsjokAey02rqLFrT+pm3E6XdsrhEbF1QdiXX3jEzZWWNjN8L8DnDFJK/IjR1y8uasfXLnBrh1TxycxjJ/UG8aiCdexhAk1EuWLkdQuu3yGd3YGdioityMENO3nsm1BWCowGuK4DupnMrMpA7/1vrYsS0UXGvr3iw5PrPYa4i0oCZ4qpJKGZS68hHhs2rvbe9e2VFY3vXgQiYisy/isvmTIhwVreZqoOUjHBFei+Dz6Hs6PT0CID3wHxz06vKds9hjbGfMdQhArbmHhySHLs8dE1qg6A2c1TImIrcgA+P/+om/uacqaDVchiDZq4esw+Nyx4ushqI/EdQODD2T87xEit/2sVQRhzKtO6dsqg6xct6oCoaEo3IxARWxEDEJ6G9kpu+bQEs6EZxsBWSzKNbv/e+98a1UMVEfYOi35l1snTBiH221LEwXX8oCVmDR9xbd2aDguMJnYbAhGxFRH612ecsPdgzN+NIUaIosFWTusW6LufEp2GFhH0Tohe8sszTx+I2P2WYJDKZ3jWKN2/+roFSzohMpraTQhExFZE4D+5avLVCY/9skQh4KQzkLEqTt7txujTpoiQd0r0+9eeNSHW0PxmqYqxiznkkuWXjLpi/s2dEhpN7hYEImIrEuzhCdvogbn3SlR9T4VLAI681S70G397cV8rL5I7O4XYsAlof1XZpEmnVKoYGpB4vomMPSbqvvLtC39EbEWK2VvTj9t1CGGfEkIoFxQCmnh2tTZkUvQjKRLgBRDb+tZrSebxGPaO4jKAlELSq6joO6n2CbsA4iMRXYhARGxFAnvFxSec20+RdzAhgSsWbMzC+Xv95sGiPhdXJFd2GrHhdarP0h9fHkfuNbqpoWbmSJ5IHDji8kVv7jQg7CCORsRWhECGbW+WX3j0o32IPI5qKjTaTAQlfYZX1/5pVRHURSILiMDH02sO7qUFLwEF7CMGWSGnj7z2qduiC/AFBLkLREXEVgSQ/3DOOcp3y5s2lYNfyVgAvp7820pi7BndNywC2AUW+fGlp5Umg+wmgRxDjWkgmHL/toaqH3bFc38FdmWnFhcRWxHC/9rl5/TpJ5rWJoStYkxgOyN/HBbb82dRBXsRwC6wyPraGrWCo1fyfmo/RcFgcX3F31x1XHQFrsBAF1lcRGxFAPj5cycdPKrCeFkN8ggFHBqxceaomxffWwRVkcgCIxCeZu8zmM/jpOXcmKYDbvaCxvKysuraulyBVUXiiohARGxFAHfl1T88z3BSvyPcBp2osBmpE6pveOTdIqiKRBYBgVUXT5mmmu5vRT4LZdKCtF42fkBUqFsEpIsnMiK2ImD78bRJc6riyixF+IAEyM893GfCbY9vK4KqDokMdyW7lJbiBm0DNsp7oUbIi0poFK/CISK6FQGw6spTvyuCbX8ttzQgaQGNyPrxbrf85U8dAjua1C0IRMRWYNhbHwKZOXm+ScQPFMQBAbe/0GnluG6uhXrtwil7lSTiY1nerdZ1MlolaAAGVsn8IE4pTXmu3OYjWOtJugDH4k+Oq71zp63deueSKf17m8EaLchTjWuQktZNu9z48KUIQBZ4uUTiioRARGwFBjashVqXfv9xQ5HHKKFszDf8zYsN787k8wc/m3hir/LShxUpQAQyJFuQ2AFCBUiBQTAJum4BZwgcJiETsBZpJe7Y0iLmHnb7vU0FhqjHi1tTe5bu5DdtKdNECeEqpJC1eNlKVBO1murxofungRGxFThW4WfevgPyb1gUTyBfElv9R3qvcd1V6hGe8g3k6ktOPvMdzAIw9QRw4QKHPAhFAmMUhADQiArAGGCMwUiUwOaWDEAivn1L4P9wwnWPPLkz7VbCGwgVvRveon5mHEYG5JD+SaDivatr6/wCL5dIXJEQiIitwMC2/iji6z6MIVJNMAYZKEspAAAgAElEQVSB2Vsf672/113EFt5/HGPA+nymocI0LRCBAn7grAdqb5AYfKzE4qYZH+7lc3GKAJidB6AEHBEAiSchxbDfQtXJE659ZKfpIRf+5TRiYPa+vgY+1RUSHGSlNiqxvt0VwwIv0Z1CXERsBQ5zuEOysqm/xbE2BCMEAosXm/Py2N3mPeMVWFWbxC09Z5LZP85aEOWKqmrgZORzWPFP7LUu6W4blNaZRFNM07xUcNbLstQsD5x3fS9/IsaEOoEEYiZhfUve8a1eh+1/3f1vtUnpDjDo86tOuDXm2xdKpIJLDG9LEK884Ka7szuAazuFCxGxFTjM4RsHIzVvbRIZvSkIYAQeb8rD1O4itnDHNtz0GnzwY34gAEvz1W3pDYcrTrla0UsuUWlslO97oGgYGArA93OcYHGZhsgPpVBGYKSDUJPQIpRVm9X4nofW3tHl9VzhDqqy2lKSajyezjX0AoEqmOQfpgxwoB54MXJfKy6dPKuU5+ZgZIJDdb4RK9UHXHv/ZwVeLpG4IiEQEVuBgQ2JbbjhbSyVRkWYrA8Uuagph37QXcT28lmH6CMqjNXcgL5cECBQ8mHT+oYDtbi4sE9F+bXgBhAwBsgA8FAAju8AYJFRON1Ll+RhXVh7EGpCs4cgZ1pnjbzhznsKDNnXinu59hCqOgNOqlTo6RYRB7F8NkEpBkkl2F6ex+MlK72Afuoy8k6zaz+w3611mwuVC/zkkhPP7I3c+cBUcFQdNlNy0PjZ97/eVb5HejqHQERsncPvP2aHxDZKc7YlkJWkgMCnfEEqBz/sLmILc359ShpfFgr7jhAIiDBW5hqdvWOVyhIqxQjCORgqhYybAc3UIAAJvu8HecffW/Eg3scsf4UzpBAzAY0SvbUmNujgrmi99PjMSUMGxUrvigf8uyZngDgDChyEcAFTAKooELgcBKNAqA45EAE3zGfSHN3Zog55rrM2Lr9o0rH9iHhCSAqupsNmwMfte92DTxR4uUTiioRARGwFBvbl2kP0kWnUqGmxGBMMBMLzM7b4WXcRW1h+ssr923yV29+PqwQ8j9ktmfSEeGnZCxyLXggJICKAOMdAJIDPBEhJXNch5Z6fFUlLf0hX9OMDhKBFUf1tUgza9+a6rQWG7d/EPX3R0XsOL7OeU7NOpSE1wBIBQwg86QFSGIS7NuAUwJegsfCxdgHcCktYMAQOhwxS7/t4nHL21Kl1vKN2fnrhsYcMUMTLDqFgYwoeGKcPu/6BBR2VF83rWgQiYisw3mFOa5jc3oCNWMwXYT0nvTtrez/vLmIL3Vsy46QZ/VV0C/XyILjDAKEjmWb+HBR8oqQAhAWg5xmokgLV45D1/ewnzS1VMBjYsCbtZ4aqzEMIQUalsB5rhx547UOvFBi2f4p76qLJw4aX0jeVzPaKBKFAmAESq+BjCQFwQAoHRcE24vqzMhBjCJNDGHcINhi4dgpMZADTSuAzBw464NbHOvzp+PkFE8f3U8Q7aUUBpmgAgf7zgTfc/z/F8juSW1gEImIrLJ6w5qxD9HgJavz/xEb+mLX9ad1JbC/OmLJPdcJcYgY2UN+DlnTTPB+hp7RE7AmXB0pMM0BjKkiJIc2BZQH+UJ0Ye37YjeSji46eUKLhN1VEsEM12CTVHx04+4G7Cwxbq7inp03T+iqbXqqgbP8SA0M2nQZdS7QgUJsEkkOFYIAwA0IISEHXuoCPyeV4hmr8GBykJidM/UjACAJqQRYnLh36q/k3dtTO+mnHjxqgestdleJUEIChV80cMPu+uVFfto4i2rXzImIrMN49kdjCPJtakvqgnHu7J5AA5uRyNvCDXWYfkiir/JXPeUyXOvYE8jKYPtLiOudOmPdMJoTmg1lHji2h9IOQ2FyqwWaun3vQ7Pt+X2DYWsW9f+GpFw620K0qdyAf5EFV1FUglasAkQUgOAIegAyvqSEMIMLPQ/Thpiw/YO+U7m3o3TTYVOmnYChKSyDB4ckrR9/y4HUdtXPZeZOHDdG8Fa6KCFd1cBmZOeT6RXMLdTjRUbuieW1DICK2tuHU5lEfzTzC6seCrf/csUlyV9bxf9GdO7bQ+LcvOfXMASqer+bSkCAccl5qg8/90ylKfLg1SE8oS1T0yXnojeEV+6/7175xyy753qElVHlRA4R9YsImYU7d/7r76toMSBsHLj3nHLPMbP4sBm5/LD1wEElzkN81VPN8AHGmKkRYPAM4bG2LMSCBwQcF0gIf5ib462Xbc9/TFfy0TQLwjSQEWslJw6784yNtVP8fw0JiG6T6KwKNE0F1yHNlxi5a9W+innodRbRr50XEVmC8/05s27ARs77MseE/Ze3gvO4mtkW1NerInPLXXpQfoHg50DQOOTudk6r+ps/4nQzwS4wbzsZyhzfWV8rqaiBZ3yst4+71MYx/SIQENyQ2Zozf/6bCv7X50aWnHlXFcs/EVQCX+ZAT2lzCtStVhT1HQB6IZdAaKYExgCRAwjuugKHFlxfisvgf9G3b5paWxs5tDlxg8YTYLGDQhNoHNnY0vB+ef+JugxTvU6lwkvJcIFaviwbTEbdFxNZRRLt2XkRsBcb775+i2/8/sZE/Z23/3O4mttDN5y85pW9VIB6pUOUEFVzAyAPGPDA1g7O8nxKA3kRm4otmz/E4xiMMVTlQ99xyFWNgkkMe69u3G3JQMTqVfDLz+DmmSM2K6RqAqsu1m5r2yvdTPxmZr/izAuwMCAtRMAcX0dZcoCIwYAnAXP+klLCfG2AkPvUl76+qFmwScvlWs3GvQ2tfYR0N7wfTakYN1PzlQB3MWk9GrWlDZtfdHn2KdhTRrp0XEVuB8V457WitlLjhji3ZumOTZOGnZulZPeWe4csXnlVSYYlfI6f5jPK4riLXBVUCqJyFlWCcIck9AEmNOJVSEoXz1mR9TnBoIfTSkXMW31ToH3d4s2CPYcHTcZI9gjEGnGpNm7PJAfvdWuduvmjKJBWxRxFiSCoSXBr2TCFAGQZNSiedad6FcraHlYg9HTCBVKUEGolx1bAb7rm2M6FddtHUQ/tT/yXANrgYQZ6WThl+zUOLOyMzmtt1CETEVmCsQ2Iro9560MwqBiEFkEdXGCWn9hRiC92tra3FE1o+3qO/qf5K5/LwEoJ1yLQgnQIgCmD7AShWElzGQaEG5ILAy1H8B6e5ZGYxHjV5ubaW9sovfaciFuzd+vgNUj6U2Nt/SO0rbnj3Nt7Y8nBJiXWMy12ckRzisSTwjAdBNnOOgRsfNON9X3RkMJ5zDRS9wlntiOH7zn1oQ2dCu2TacacP0dH9iDhgSwQNpGTvcdcv/KAzMqO5XYdARGwFxvrvxLYONLNXSGwIyJP1eklNTyK2f7gcXlliqYF9q1Qx1eL+Ybp0+xAFqoiqmtvSWWElKtfkHPFWVgR3bdoEy4txJzO0JSS2IWTlMyiz+TBTVSDn8S0etoYPN/fKhzktWVujrm/YdoqZjB2VZ0GV4KgeB2K+ruHPhZ/+sWYovxFh3k0rhy05uLMuOebcznQCDpuF1s88aW5/A1/o2I0g4yX+atfvfeCcp1IFXi6RuCIhEBFbgYFtJTbifQG62benE9u/uh7u4g6GV3AVVOJ1TTk0qDwmG/63XXhn8lRthTYkko9mnvSbvoSdT4ULRNGgOYBfMdf/TdprcPa+830GtYeQVU0G0WkLJvkKxCE3OhbTpgnVO0UIQcLL+k0BTjcleu2xX+38tW3V/VXjwvKYkrLUa2aQm2DoCDblvdXr+ajqifPmdUuHls74srPOjYitwJH/csfmrwHN6BMSmwT8VDbvn9gTDg8K7GpBxS2d9cMD+uHgdeq2ABYMmG5Ij4vVumosxJIj5toi8DLMsOK9KMETvYzTTzdVmicMZPj9LDW3BdHJ1XPqnu2sYa9dfkaf/txencDcCJtyZqh59wPK2J90ZhfYWZui+e1DICK29uH1jaMjYvtGiL5yQLhLwrHc3D6Y/SKmA3icgc8CwEgJL+VDTNeBEgGeawNICRpSQagqZAkGBxTPzQc/HHNrXUHuctZfdepUy8ktNKkAzhm0GMmTRl6zqMM1cR1DJJrVGQQiYusMel8x9/8SGwB+doVeOrkn5tgK7Hqnxb1ce5bel/Ef6W5mtoKCUkPTgYfdO4gCjPngB3lQiABDVwFxDNkAwXZq5TISz3pB3+X3hdhRtZ7Q7ur/JQbiOIUzIJoWrHKVgcW++N9p8CIB/4ZARGwFXhBftWP7VC89KSK2tgO95OKJvWMsd165Yp3AHTxI02NGjvsYCA8MCws3n8swN9gqzIoXNkj9tkNv6ngh7v+16q8zJg7qB+yzKtPUgPnQkrefbXaHHVeM0+C2IxKNbC8CEbG1F7FvGP/l4UGwHqlmFUNhV1r5VD7KsbUb5fBA4ZWzDtHiahyDoVf4GvRWOf2iCTU55TFNJpsY33XeM34ha+paDzEun3JbX8KnsVweFCMB2zk/buSNj0V92Nodwe6dEBFbgfEPn24zU1vXG8SsDDCGnMEfr690p048v3vePCiwezu0uDevPHlob5FdnmDcoMKCPDbWOU7Z8N2i09BvXdwjYitwyMI8UXV622YdWaU+EpAzg0fXkPIeVaBbYJd3CHFhuctx6bfu622g0wxJgHkmNOHYJSNumX/zDuHgTuZERGwFDnjYaHIXnGvWkKEzJMGnwUN2jp8VlXsUGOgCi/vwopP270W8VynxKaU6ZHJk83atYtS4G+9MF1hVJK4LEIiIrcAgh8Q2hORTKjE0JsMaq+DPWVv2iEvwBXZ1hxEXvlMxQtfeiHF/HNYBbFDAIdZPh89ecOcO4+RO5khEbAUO+AeX1VRWiexmFRtUcgEE+fO2GbGZ0SviBQa6QOLCA4N1l5x4uS6DazUFIC8EZKi2siWPx+5/a51TIDWRmC5GICK2AgO+9MoThvYW3iqKVAAWvmTHr12f7ntNZ8sFwrbZoalHz5tX0JPAArv/rRNXP/PE8aVu5lUrYWqelJAjKt/C+BHfmbP4pW+dM5HB/0QgIrYCL4allx0/vjfy39FABcHCh5TE+W+v1e/ozAXyN678/pReBP5oAm7IevbdmcB9JR/Pftjee5xh8WlNXZ0oZIlEgeHrUnEvXvaD8kGs+Y0K7o8giglZRGGTL36zdgOZ2Zl4dakTkbKvRCAitgIvjA+vOK6ml+CLdKlB2I/NVdCUwdf9pcN9vMLTuu/yFQ/1R7KGOA6oVAFHcN8mkAqk/qDtKG8iRN7euNHZ+nU/xpDQhg3N3JhUxIUOWE/a26pqOruDLDBsXS5u8YUnlAyOi0V9BDtcE+EVLg1akLp8AyQPPDw6MOjyeBRaYURsBUa0/orjf1nOgqspV8AnGqwRuT2/c/PTyzqj5pnamgMqA+e3pQJV60Ao5xJzhQAiaviipnSdvGsS+KvrB/c2ecoSv9Le9K+7uXdmHjdmgBl8FPgtwNUK2CyShx547f1Fe0KvM752xdzwsGBXEx4oQeJEAhjyjACLlzWutYNDv3vjg/VdYUOko7gIRMRWQHzDndHug/MPV1HlBFUakBIo/7dK2uvIi+/Ld1ZN+GZBv3x+lCX071madgoCpZozVzUVh+jAQEUMPNsXgsQCW+hr0pzeH7Pif00r2z4ut2GMKtJvqwaFLNJhMzfOPeC6R4ry0lRn/Sz2/JDUdtHUm/og53zMOfiqAQ2cOA1EP+HgOQufL7b+SH7XIBARWwFxXnrlyUPLfHt5DBGDYAO2cPFMoznyuENrazvce/+rzPtHg0hL+ntXiExNpUkmum7G1C1LCd9x0q0S2J6xQQgBFbHYylxLQ30yYZyQ823wdAs2u37tfnOevrqArn8rRIUHMCOTuT/EefZMareAruvQ4EiWTZZPr5597+++FU5ERrYJgYjY2gTTNw8Kywbeu+DY3wxJGOcHtgMBWLA9Hjt679o/dbo/2H/THu4Sd+vXGKcofoSqkJMpgX1d26moKi3Vue0BFQI0iiFnZ4BaBjgIgOnaI5tzwdmlpubtLGUoYZfefsHGebqf/pnOXdCRgDxjYBsld6zXt13Q3oOYb14R0YjuRCAitgKh/+5Fk4dVUL6sQtEMjjA0YWPJRrz2O135gwkPGvZtalJKjYZdYn7w/TKNnE2FqFQRIkIyoBqGvJsDQgAwkZ6NtPdTuPy2zSTx7MTaea0PJO+of5ZfdMr+JVS8qSEGQngQSyRgi+0+7Gv09J2F3HfU2H6VXxGxFSDa4a6peoj/QF/TONlpbgaumbAB6Yftf9NDfy2A+A6LCB9CEc3+uLhODzUUZTpzMuVxQ4XAzgAWHhglVdDILGhSzJWPQt8RHe1nFuat4mb5CIXCrgjQUCmEDiDXBBJWZPPlnxS69k7+bxvzl7P1P04mk2ek0s33l2Qr/vx1p7yLFtWQPV/PUVXTf2oicZuihk8JMmjK5nK+khg1eu5jnXr0pcPBiSYWFYGI2AoA7+sXTz6qv4GfND2bGFyBrKK/8LnWMLErd2v/zY2Q4GKSPEJd51hDSqCidfRq2xdDETEgpShynaINOvK6P7frRx5+fr9/+ekXGSh3oxqe0WIENHzAhksAISEADAHRsjmJbm7kwW8Pv7Gu3fcu//UtBrUph2i5g1Jb0PC+5eXvM8YI0g3I+3CSw4MGoGFNNIXwvxUJvTH3h+tI6kldEZizvsCDH7muA2Y8DhIIbHGDuxus/E97SpwKsBQjEX9HICK2Ti6FF2bVJHdLaO/L5qahSVUFFmC+haF9x/7mLz3mqbbWrrBD3etKEJpFuQDmOC4Qbb+AoYGKGp/QpOBXR9644Ln2QvHSjB/vPcDMv2eKDFI4ABICsMStYhARreQR1vIJ3YQUx5uaAjj84JsWftoWPU/XTkvEIX9LEokxBveIJcUI6ns68x2pYoR0BVMWcOBKWC8IkmIFcR6AqmvgeTZgjAEjCRhLCAIPMCagEJLCiKBcLluimnHIIQqN0jh7n+sX3BMVLbclKt+eMRGxdSJW4Y5l2cVHzylXxSUJXwOJTNju49t3LRl2fvhsXCdEF2xqa8PG2kNIv232kaWm9XjcMHFLLgOAtekbc6nb9+47iXfU1reuOOcX/XDzPMPNgSljICSCACvAw4eN/SxoVAJFHITg4GICaWK+3UibD2rLDunNa392fsLN3WaBD4rngMERqBiAKQg4cADhAUIIvECCrlmAGWv9Z0YAfO4B8zwwTUuGbxZwEAhrGtg5e67KxJO6GX/GR0gL++W5TOZtNX7onrMfeK9goEeCuh2BiNg6EYIPfz5pn7KY83pMJRp2DcgxpblRjY/e66a7N3dC7D+nLrrgjOGVJp6sSl8C/OPlNwIAKmCBASGOMGYgJZIMU5BIRQAYsETI4B5ShI9xkEcJImXcpKWBl7+QBQKblgVcyM2ZQNzFtKRs8QVg1ZTCisHqTP6OqTf8ubEt9r9z5Y8n9pUtT8UCF7BPASMVfILBwxykKgBJF+JIgJ3LAVFjkNeT/opUOjFx3jc33Xz6kin9d08mFmAnTRU/4CrDAjBGnKISDv5oAPfL151JfFnGdR8VAkM4hBuGxEQRWMA6O++skRhJTDH2pJ9Tmzd98kVqF7F7v9yvkoZxFQ7fECMcUgw+3yC1fTvyqdwWnKIxXY9ARGwdxDzMW5k2eYWw1H6JmAkZR0Kjh36x128X31GIz5qwVq23M/TtJPLHKTL8EYctkDgwREDg1p9kq+WCexIgTGoBSAQopDssAGi4VZMAum5BOpcBAQgS8Tg4rt9a/sEDAQhJCEISIggww+BKDMyqeGK3X955fFt8CF+WipVsWVRB2QmhTlUxwM67EIAArTwGuZY0aBzAUhIgQIUtvnxr+UZ+UFvvYYYuQG3tl2u0vh6t6p2jhqmfRyG4hSIfBViF7Z5y4u7xsY+2Z9cZFjvvk5VPVqrkcFumwaUKbPK1X28Yh2ZNnVrHO7gkomk9CIGI2DoYjPdmTJ3eWyVzDe61PhUXlJQtW8Lz46fW1vkdFPlv08KTv/e2fXxX37jxA0X6WGIfOOLAMQkJDEDi1v/BTIaZ+tb/T4QkhTgKSQlz8r+sEObwMdIsC4e5LsexhaUaOKyzK9EtEMwDn+dB11WGsUKb8x6kqXn1mJsevrotxBYaHPafq4o5T6ocvgt2FhKmBUwwsAUDQ7cAfAScqeBIoylFle/tdePdH30TPi9ddWp1mXCs3p5d78R8Pri+MkB1dXzD9BoDY3+lQlE/AiGBatm1dqz/hHkPtLtUZdn0mn6Vgb9USwS9bR6AMCrE+jTb76Bb65Z8k33Rv+/5CETE1oEYvTajZlR/XX2Puo5pIgqBYciljdu+O+n3zxb0/mWY9K8aqu6lyMAIT/rC/0DrqR8FygAUAND/fqfBUbF0Wk8Fv/yjCIFo+E+u++U4lSDMfRw3jblaIPfQAwADa+BL/k7acS/PE2C8vCy1CIauaG/Zx19qJ1eNAv21uOcMjys+CO6ClBJcj4NmVsB2X1mzCSlHHDrn/lXfBPerV5yx/+AEeTO96TMYXFKyXXWCjR7jb2SR9hcOygADK/eoKEy25cEWdE6f0nFXtGe39q/6l8884xhTbH6yPGGA7WHISO3tXHPZwTt7g4BvitG34d9HxNbOKIVkM2IAu69cJacaYV5LqLCV8fsbYrudXeirU+00rU3DP7pk0oQkIa+bHqeK4K0PErtS/jLDg5v+b/vy0NfK6mrUFr+WXjBp4ICE9gzLbR2laxgYk6DoSWiy5SdBaeWUUVfNX9kWA1+74MQjB5r82RItAOLmQJcYAo4ggykESAFDakClBMl8zxX4QLe0fLkNedGRItvQv/HV4gGSbzpZ4Ri0eCWsbnaP23te9CpVW2LVk8dExNbO6Cy5uGaPfpi/o3CmSUwgH5hNW4GM3f/Weze1U1S3DA/rwo7x6y/rBf61JvcAEwQ5zwU1XvFoc0vm57a9fbvRdxckMv441bJme2psxMrm3IEn3rrgi68zOMyFraitUSpyzjEYuXWAJaFWKTTZwTt5ljh+7C33NbTV2TC3OCBvnatibxdV2GdTLnREFM3VDAifM6RM+TJ/CAKAg8t94VmlZR9stHPPZYA8MN4cs7k9O7iXzju0ereE8lGJIMR1XPDMylff0uURhUoptNXvaFxhEYiIrR14tr47ecExd/ch+KywjbQrFWgQidPH3DJ/QTvEdPvQ1qR/csP8CgVO4cLHVFEg7zKwtHjad70XFaTsTSkd7HMEWUwhT7RZY66756b/a3hIkkek67Uy5kxJavQCIpwxlIDGwlygZoAn1QbXNSeMuOW+Nf/N6Ueu+NGgJEEnWT57JKHnN9fXA68BgLVWo0JiQZlqab9HhjHJl7K1eWfryW/4OS4FWALAd/KgGhZkXddBVFvrcfIp0/QlTQF/otnPrTbKHX5I7Sv8q/KGX3ZkSdf14TBZpwqkAyS+wFr1/r9+5G/dHqjIgA4jEBFbO6B7c+bkql4QrE5iHqNAYLsj3/TLze925DOoHWqLMnRN7SF6LK1comnqr/JuHhOVAlU1cPM2aJoFSCggBQEg6HMnYJO25tavCUslQmN2Kf0CS2vAnjFVPT7G8dkmwn2AuaAQBggz8LgPQiHghyevNLYiy+mxw2+pW/tVxBKSbKJ0+2cJLTYEfOG5eefnhOIH+yervfc3P0GqzPLvYyL/aJgadjgHR0gecHyx68oPyuPxU1XmHkck7yWxQFwIhHQVEBIQZF1QqO7JAG/1EFkRaPqSTCDebhTyvXeS1S3/mkd8ddrhR1Sb+nMJjCDnI/hC4hnj5i6eWxTgI6FdgkBEbO2A+cMZE39cSdEfVRGArsZgq69MGnbzwifbIaLbh4ZEQitTVYlcyynlVD2bc1mtWRrYwgVEEAghW0tBFGSAZACUwDbPz63SFIkoBe5zXhlIOdBHClWVBNWxjr1cHjSFthbO2oHt6aaWUTVSGXg+ACeQc1kDLu87b30uf7fekmj81+R8+Ok5skm8mdCS+wpQwOMYmIB6RcK1HPnnOSQ4QDMVkOEJLgkT/MrtjWrmwn8U+Yb+ONqmg6vKE+N8N1cNmO2nSjaoAqvU4ADUEyCAtJZ0pF0vUKwy11boS5vs3L0vx3d/NCS41tKdtLPZ8u1yzYrDRk4X1sVHn9beQ5RuD25kwD8RiIitjYshLL/4tPnNZ6rixhGcc/AY2vSJx4e2pdi0jSqKOiy8DD5iOd1X9Z0ZJYQeb2FMg5wDqqpD3veAm2Rdxs1WlpQkTd/1QJcKhN99qq6A7WZAVQiwwAXOJehGHAKBwQ/CWwVCGobB3ZyTZhLfk9fR7bmcZ5VZ+tMmgf4xDOB5DjgKBqCK7ftwFwi6RPriC5m1N8cTToPJRLmplN4lMDrSRRogIKCEWTQkIItsIAaBwHPBp8aLG0jFpENr57tfB1ZIdLnE5nG9uRir5bIHJRR1om6qui0YwUTFPBAIqIZySHjNWNtn3I11y8NP6qnpZc8N1JXDwsRdA+D1SzW0W5RnK+qSLKrwiNjaCO/SC6f06QX2akMjBqMY0h6Z+2Bsj4t78t/qYf6oZIjXq5dmnaB6uZNNQg5QgWDf98G04mC73Hc9+SZX1F8rXumL2ZL8CMxy80s1bQ/IpsFSEdhOC1BNAaqHJ8AYuM8Awq8+TCXDiudQ/EnGDR5HoN+9j1Xd8I/E/RvTJ1UndbogwdwxCZOCE+QAMAckKQiPQUJJQOB64HDfVanKNUSs8HZpQMLCYwJUUJCSga94IAmAqulPr2xsOHXCvHfbXLMWkpxvpWjczlcjDe2FENuvKpYYkPfc7/gKYpskHn3onEfXhkvgs8u/P7dSONOZl4E8VnmDUbrb+Gv/e26wjUsnGtYNCETE1kbQP5h27A8GmugeihHYEsM2gY7Y86bFL7RxepcNa+24cc45VLVS+xsKmqoT8iOKpEYFASfwgFpWkAX23qZM82OopNeiQ5GG/rEAACAASURBVH41fx1C0HpzIfwT7l6OstcfXGGn9y9X+DWKGmAgCFoCFxTNBBXr61MtLfeBhGUBTb497Na6zV9XzBtW+A/NuGdXIHFlTEH9OeZgqygsGgbiYzA1E5xAAAYEmuAAsrXAuPXOJwnze4IBIqz1Ejulyto8Ms7qf8Pi19paPPxVoIdkXz4cDw6r4I679ol/Hmosm3XG1H7IWYhEDpBqwqoWNnn87554tMsCFykqKAIRsbUBzpAsVl160vykn/2BpeqwzWfuOtesPPSOulwbpnfJkLDt9SAzvQ/Npn9UZmgTJfKrSJgzY7y10wX3xCYX4O4G174r25dt/qaL6OGn96rmj0+3VD5fUQHb/peXzg2iA/fYZfm88z9D73zxG9sQrTnrEL2kV6/hQZB9HjRclaUcPMkhiWLguAFIswR4SHRhQk94rWQGAGmQ9H0q5UeGFD+hiMVE4EOAsZ/G+qMpqV7+nZsXri4ksK/+omZIf8is6l2uY88PIBVoN+4SG3t5e0pHCmlPJKtzCETE1gb8wp3HBIZXxYUzgGXy4BjxF96xlGO7Owfz984dmrmdTelvVv6UBOKAhBHDju+A1BCk880MZPC6AvgPCAePZ5L9+ah64OH1pDa43Trk/V+eeTrLb/9z36SpaIEPNOeCTlRwAtbiAfr9Vt95VkPy/Yaq8FY6/D/2vgPMqupq+93l1FunM4CA2MGGorEnJkYjRo0F7H4mJphorCB2M/ZeoqnGGGNX7Bo10QSNSoxRLIiVLn2Ydsvpe+//23cYP8KPMsCgqPc+D08k7LPLWvu8Z/WFRjTQOW0l0t/IDk6F0RY1BAclsXegmeX5xJCQujqHSEC8SCgjN3E+sd4NuFmpoaaSZCZU/HbZiz5sDDeQMzs65NAmDGvK2r8WQccuBhXMtgwURVJuF/LKrlTmxj1b+ubjop0YW8vGuUHHvOZUOo2Cx/9ZrEl998vo8e4tb7/K46rA1gvuTjrt8CGDLf/9nEwsFwYWJrh0wxsevXBtVKJeLPuZQ545+Qc7DkgZR6aTjjH1jtmsPG2hslFWVIbc/HeRy8cUDR5t54UZOoar9cRvNQkijrFyA/ZrjeU7C4hx5Z5X3z2vN/uY3HL8jk7YfmeDkpu6YYCcbaOz0AU7k0Y58WMFGkpCO8KELaCuXUPBBqhSYOa4bVhSIUxCyDRDScaAxVEMwteQsFMXZcuvrkpy1PvTtjKZbftenc1aHHjbiqBMrZSLrsSY0RY7P5s7K/lHbxPrP+28+iMx+5wD7suI8hiLAF7shh/6snn33/6lozc0qo5ZvyhQBbZe8OMfpx64z0aueqpOFwnygLmJOGjrL9D+8vfzjt6l0SLPW4Fn5ISCkQgZJ1GHR52HlsD8w5x54o3lX/RJLcfZm/pdr2aE2CqRBhLOUJY0Cgz2h0jgym16AXCTWkan+5XkL2pldJJNAofq+ricI4pUxSalFUhpcpSjGBwUDiVAmMClVFdDQ0CYao2j6R1gLWa5aeKa5GNqdbsmPeekvAov6s+ddOj5CGxDFGP5sA91zshrnl4r9fSts37ws/4o/8YhFGWVwvSQfWfXGyf+oxdXpDpkPaNAFdh6wZAPLjpmXMrvuNYII9hIywXE2GKL6+//sBePrpMhT4wbvduAlDUpa7BIBvHTXrH4gMfsJ3a+YWKwMily8gVHfHMDET+fiXVcGQGlHIGOOiMEETFj36K/Xsisi/Zsub1zVRt+bdwhm7vwzk5Z6gAWJ5mcleGlYhExkbDsFGKdDZDJoXXJEpXJ5KUXJkEsyZTIdn83r1j70Kibb+4pLPeZS+muUq2YRjEMYsVSQs+dMWrTumJ84+B8fm9pBCwIykg7Oa+jHP+yjZHrR173xNJVnWNl//7ShAM2G8rUu0YS0pC46DJSd077MPrh2kqDa7KX6jNrR4EqsK2CftqI/u7CybfU1tnH26Bgvtn1DlTzLjdM9NeO9Gv+tFIgT4877BuhJIuWeNn5J9xyS/xZs73YcsT3Bsfh05nYBxG6WBtDCAEFAwZ34YUKCeVz2kNxwna/fOBvq1KxK+ufO7q+Bmr3TFza1Y6DLfKpDI/iEHFECjGhbQnPzOuUeN0n7NUXMpu19yYsRntk9++aPjTjpg43hfixMpBuRfnC2Sy5dUV7plYd3xl39F5GVLpicH1uu9KizkqRTZavnTcnjC4Ycf2dt68uhXWgrhWrV1wlRhhIUBQk/Ng3tvrmTQ/1KoF/dderjl93FKgC2ypoq+07G6QW/506cneiKEiZvd2u/B1XrISx7li09jO/2DJmr8FJ9Gw6KUMJCWoAodT12zhIZOqoMaR1rmUo0JpE97Rb9LQ9rpjYqyq6enfdVUBaK3fpW/iWXF1P4qRx+9c3G5njnUQdblNsRZOY0VBA2RwFU2GxnTpx51/8+bcro8SkE0enmyx2Wh5sXIbbeY3w80te59KmhQ29sd+tOOfbFxw9NpWUfp9FAiEiRDz38pKlwd4jb3nCW3tOVGf4vChQBbZVUHpWy3F2prR0RlmW+ttmCirgj87zmsasiY3o82LqiutoVXSgKj2fin1IpW1jOoGfgBAOGlvIOhksXboQtXV1COMEPtgcjznHbmJs+tLqglRvz6glrrcnHDxA+eFp+ZRxgqto2mASYeKBJAnqzBTiIEZiGpgn7TempofvNKal5VOLeP7r7OOG2H5yimvyMZ5Qd2x7/Z/PW5XkubK9vnj2kTX1ovx+s4lGLmKEgqBd0Wda041H7dLyx/benq867oulQBXYVimx7e8OzJaXUtN0uGWjqzP83eycf/KaSANfFKtfOe+onZpR+ldK+FAiAeW6/qyE7pxsSgdSRHAsDhl7YIlCIilCK6vmhfElSwYPuXzUKb2zi/X2fK+dNXqQE3RdmOP0f1w7zQ0GeMUCpIrAXQrLYIjbu5CxspDKwGLlvj8zu9WIPVtaPjWVqmdtHbaxtrx55YwDR/WXyeNpEjGDAz4IOln6hSUyv/9uV99W7O05q+O+OApUgW0VtJ8y4bv9a1VxFuWmqXtwxhEumeOGF6/ty/N5svw/Zx87opGWpjgyBI0FKNNFGwV0algCUskDVaUitMs3Y9uIdS4sM4FUDeaXkmcDp+7wT5NWPulL0NKiq5N/ksGwsvO93HJMo1nyxtdCnTiktjbVsXQpEqVtfrrCL4EXFsEzBnT2fdTRiaydhowZOo3aR16dSUZ/XkZ8bVed2v7m+I3z7Crhd+ik/Aotlir7ydZSNOaLtK9+nvfmy7xWFdhWwb1/n/GdTQfYwbuGZbMkJoiEOus/02uv+7xesr64XFPOOnKPeh694IgILJZgzNQlwREzgkR3uUKCtC63HXkwqKqU9ZbcQBADzM1hcWdpCkvXH7zFZffM1c1V3sCczZUXHZciyTY1YbAZVFLXpfhsUdswZW7Rv09Etf9Y3vupwzRqMwt/niX8gixFzlUKXkcBmVQKkmmaRmBcgjCFrnIHLNeETXVOaQylODp59pJNL3/4wr6gRW/n0HbD4f1LP2swkpvTJkfRFzoJH0km99TCDv/QKrj1lpJfzLgqsK1KFR239+YDSNc7pp1ifihhcPPMF6bnbvgyAdtrpx98ZL80vdsWIXhMIHVIreVC6C4KJKpUo2VKgGjtFBKi0gZGd4RBpQGygESkMDeR7JjYwA9A2CkG4cxQureCX0m1EsRGRBwkiusmyf+O4/hnbtZ+L2ov7Woa4gaTYyuD6oQHHUicoJLZrrNEK/+r/6v73yTR+aLdgp+uDAnFsVBZh29/5cP3f96viAa3ERuK8+upaCG6sgkBYm2OgH3/AsM57rOqjHzee62u998UqALbKm7Em+eM2rTe73on7aYN/dp7fnj5S/NqL/wyAdvHF//wQhK1XaTKXciYWXDFEAiCWIQVNVQDir4I2utbAZkehVJXwtVoBwVJEkgkQhLGNJCRSosY3fJPD9Z/101mdKkjUgFICJSJlM9RKfdnXFLCNFDpLlsaThWEBjVCwKWxrJGgnq27x7QkQFK5mbQCgAthjNz+yomvfxEvr/aK19V2XpKJymcZJEJICWLugrh1D38gxFFVcPsiuLLqNavAtiqJ7azRuYHwF6YEdaTUuY7mg2867Ud8WWxslX4EJ466ra4Gx7HEg01TiBOhu+LBcVwIrzuKQeoYEMXABAdbBmyCSsQsRkJjMN3JlEhwCSipoAiHIKzSh6AyXDcW1bKeUuAa6BRZBpAMRGrRj1c8shVY0x0DqQLTVTyWtdXSQyTRq/RIagaYouCCykWxu+HwX94xd9XXed2M0OCWsz4+p9aSF6XSWbS2dYCZLorc/cMCxz6lCm7rhu5rM2sV2FYFbGPHGm629bUhbnbrzo5OBCnnmTn2ov2/LMCm1ak9BolnDae8p0zKYDqlSupwDwXKTeig44rGp6WtZcCm1U/9053VQ97dqJmSpNIdSoOelsg0NikwCGpVwCghuqmzjiKTYBWRrVJVDUT3NyVmZW4NaBrYoEsTsYo81h0wXAEzUumNqgXAyrzQTVsorJCJRcQZvNkX3CxHe1vr2ozja03jNznHoXEUIrZczBXkoUVm7tj9W26pxrmtDRL18bNVYOsFQZ+dcNjBDRG5LZtOB3OS4PA9r7yrT/uH9mILazxER9M3l+UMX7UOZFzDhQnKTEjLQhQnugIuuGDLAKu7yKMGGKGdCRUls1tFrHRnXmYH0+BmJt32NwkNbBSSRpAkhmLa4N9dPKQS0Cx5xY6mdPBcxW6n1dEYgqhKbwKqRbXlfhWJsFI9l4FKAzwiyQKkBg278a6Fa0yEPnpQe0s/KL15aEYG9zCDsoq0mkqjI8bT7xfFIWO+wGyUPjriV2aaKrD1kpW6dFG6rR/Z9+abtRb3mWENvZzycxn20o8OyGySJ23MDQxuKESlAElEwN0MgkSAc616anDT6qROswIE1RDWDXZawtNSlLbC6VLdlUKQELCFqgAWSUxUsIl2A5VWXzV4VUBM9/8U2pbW7SDoFgS1g0D/W1JJ6mLEqNje9IiKGrusoFLCdPVLBhYZyWJmbDD8momLPheCrWKRSmDxqXv/KJ+ifzAYSFDyYeca0B7zewueOL7qLV0fuNTzQV4/9lLdxTqgwCsTjhrYLIpzlFmmhgYkaXf35rQzCKOw296lJS0aA9pBQKKKPkgrUWlmpZQ3tIF/mSqpvZa6qq2qjBWV/7/bu6n/8G4prgJkogJkusGLBsOen66Mq21u+o/USae66bS2z1UAM4YhdN6qQMA1wDIgQjKfWwN3uvzxxeuAPGs0pVbvN9mw7exmri7OM4N2Fn2Q2kH4OFDPLjHrDh3VcnOvy5ev0QaqD62SAlWJbZUk+nIPeOms0YOGqGQ2dSIiwxBp4kLp+H1qIpYJDG3U17FsNIakuvBGBO0O0MZ/Ik2oitfSqgBWt9dSB/ZGEFRXtI1BGKvY0ZgwKmDFhC4aqVVUrdUqSCZ11mVFQtM/AxxMUOhS5fqXEK2iamDTMmEMrpJPgE3pkkeRShaq/AY7ricSW89t0Da3hhL/eX8prrGZzTuojYKZQRtJHbfbxb/985f71nz5d18Fti8/Dz/zBK+eceAGQ6iao7gg2qvJBKt0mqLchu42oCrGM60+auCJQZBUYsoqaqbUuaQGODcrtjhCdNiHj4gEIDyuhGREhnY6mLAirbpSGIlWXWkl5kurnFqtVdqZUHEoaKlQz70M+ipg2e20IDqObhlwKh0kvMy6p3fwYdEbtONvnl8vVNHliV2Jc2uOD2ng8lclZjcUuR0sVeZuu1956xcSmvIVv8qrdbwqsK0Wub58gyef/v0Bmxj4WFFFtA2sG9gSMOYsk5i6ga3iGKiAjwY27ZrU6qIBg5oIwhgW4xUbm0AEbuv+owEiHdlGtHSmJTYCS5mV+bvj4LRK2g1sFZvasuA2rfZqW9qyIBHoXqJ6LVYR8eQndj6yTKITQRCU6zao2fAzWu590Vx57dTRg6TFj4oM59ldjUFT1lXhgC/6nF+m9avA9mXi1hrs9ZUJ+w7ckMi5ghLCCcB1AG0kYOoQjEpIR7QsCFeDT/cfDUSV8IzK7SDQKqFBDMRxDMOwKs95JR+OZYBo21ylaGW3atkTv0Zlt/NBB+NWwkEqbfWWhYHojAXR7X/RaV16PbbMDKcdD/rvPba7JEnmtM1Nbzp84sRPreyxBmSpPvIVp0AV2L7iDJ4ybtTgAVzM0sCmw18NHTgbV0pMVlKbdEaBNu5r1VERHZfW7fKtpDNVfto+phBFOrCWwjXSYMyGFBSMVnqsV6Q8nSjVDUjd3tBKvK7+KQZJu8FLh5JoW52WxnRYRwXYeLzMCdH9954g3e4oN4YwEc8vKTTv/WUqE/UVv1JfiuNVge1LwaY13+SUcQcPHsS9WVpQ64YWAiW1dc1YlgGgvZayEs6RaFBblk9FKmMEmNSqKYHBLBg62r7kIxASTrYWvleCxXSeqYQhZMV2RlS3t1Tb37Q2KXQxSx34q+PZpAY2nYpVWahbteXaYfF/6q+W/Hpi6DT8FqL4z1Pn2sd/mVLY1pxb1Sf7igJVYOsrSq6n87x5xkGbDjSiD3q2pyiBkBJK28x0uEXFeblMfFouLKMnVE8JAcMwEfjeIklZk226JJKq4kzQkh1nBFzHuykBLpflempvqAa3ivbZLXkxSaDVU6KMitNCsB6nQlCxuWm1Ve+mB9i6sxo4ioJeNPzKB1rWU/JWt7WeUqAKbOspY/pqW6+fftD3hlji6W6vJqmohZGSECZFIomGnAqoWElcASauO7JXbG8MMTPgc5Z0BuHvUoZzcVnG+6QouzXnmJau32YZBmJBlzkQBOQy/ZOIpEiomAxJ9jHQkzO6TNUE7ZYM9V9p93oaWKkGSi2twUSilWZdSYMxFOD8aOtL7/pTX9GjOs/XgwJVYPuK8/nNcQePG2Coa6FVRSq7ga2S+sSQKIArHVcGWFoykxJMqkpgbMAslAxr+hKlxvrmpi/u2dJSCUR7veXYrWmh9Ot6y9rJEAkXxNId2uGzBDFRcQzxkIyT8+KQLaxl0RkZbl1iqIRQ1VOSSHZX+WDdnlEuCFjFJqdzqbQ9zuyW2iqOBRNLBP/uDlfe89xXnE3V4/UxBarA1scEXZ+m0yavaWeOub2/nRxbKhTh2jbosnQnqZJKYxdTcYg4gUU5uGkjSIClsSgF2dx1fuzeMPKqW7pWPJPOmXwrnL8xPG9Hx04P7Ur8riSXejOUYtoL6P9JRyrdderQ8vTD7CS8o9YxeBKVKl5UnU8aqRjM1M1kKFQkkTE5EkURxrwCupQTBMzEPMK33uWSu6euT3St7mX9p0AV2NZ/Hq3xDnVvzvry1MmNltjBrISoJRVbWJyEYIyBEQYZC9huBl4UoytKROJkf1Xi1jXbXnbH/DVeeIUH3zr3hO+kE+/enCkbbCrg+0sBFkLoskTay0oM6FpxnFuIiVNpsCwTHyXKsdSq3/Ybl9z2Vl/tpTrP14MCVWD7CvNZJ+5/gxjTSdeSDfJGGrFfhq2lpGVcD5IEynLgK6OjoOitiZv53cMYNLs3PUBXl2yvtPx4YNb3/2h7XXs3uQaE8EAYRUHounAOwq42OIYNSdMA0y7cEKGTxnyW33n783/7yuquVx3/9aZAFdi+wvyvSGzivYczwt8/z1zA141cgFjqdCiVhAZ9rgD7VhHyZ7a+9k5vXVct0QUbs43JaW5YusyJAkNHDJcoAeMUjvLBQREru+JxlXEBRcPBXF7zrW9fcecLX2E2VY+2DihQBbZ1QNT1acpJ5xyx+YCUeXfS4W9rETMSlL7sJd7EiJHHyqnWpV9EwczJpx+1VX9Gr7YZ+x5chmK5HXWmhAx0nTanIlUy5aHLMDHLrNl7t/NufXZ9oml1L+s/BarAtv7zaK13OKnlONuBs6kPMrMRrdHwli8+PUlLb7JGfM/luJ4nxY1rzRg8SeBHFJQAJnyUbQvTzJpd9r3wjn+tNRGqE3ytKFAFtq8Vu9e/w1bsgEZ6jL9wzoX1uewmSprdVT7idpRs5813G4fu1NcNm9c/KlR31NcUqAJbX1O0Ot8aUUBLlQ1h8TAqrQkmJ0PjoH26x+wx21/9yHtrNGH1oa81BarA9rVm//p3eF3jbGhNDS327696goLXv11Wd7S+U6AKbOs7h6r7q1KgSoHVpkAV2FabZNUHqhSoUmB9p0AV2NZ3DlX3V6VAlQKrTYEqsK02yaoPVClQpcD6ToEqsK3vHKrur0qBKgVWmwJVYFttklUfqFKgSoH1nQJVYFvfOVTdX5UCVQqsNgWqwLbaJKs+UKVAlQLrOwWqwLa+c6i6vyoFqhRYbQpUgW21SVZ9oEqBKgXWdwpUgW1951B1f1UKVCmw2hSoAttqk6z6wPpGAd3bYeLo0brPH0ZPnKh7M3e3ma/+vrYUWG+AbVLLt7hfuxVz3l9kSMvP2TxlE1MGQnhesSy9xnAD+WT//mJdlK1envu6Ack3ix/U1jr8QCKiYZyz/qGk83xqPDmPlf41Zj2oZfa1va0A9D2xuhoMj/FN6jP29jQubm9LtbmVmJuCWlanZC99TP0ff//KezrWBZ0eOP342kwm2kH5xemjrnl0xrpYozrn2lPgCwU2Xbra7nxvk5SRfM9kdFfE4dYZ12ymUhrFQju1LFsxbomEkMW+oB9I03m2qxw9ZpZr5oy85ZZ47Y//3zM8e9bYXK3qahmYNk9ICoudjG3C9zwwJw0PNorUeaDIsj/ZqeXmQl+vXZ3v0ymgJbLJPz2ooT5nfg+I94VQ38nW1DS0ty+CY8UwEsAWJghJoUhttFr2qTtecstNfU3TF877yS5ZKh7MEtWMqFRcEtBv7Hzj/dWySn1N6D6Y7wsBNl09tTMTH1jn0NNqVbCrIXwwKcCpgIoDMEhYlgEpBcKEQhDdUNypNPCNKY9jQv9SjMiFM2dG746ZOLG7w+9a/p4ad9SwIS59JI9oU+Z3wtW9N6MQnDEQ7qAMwGNptMrUtQVn6DnVkjprSfBePK6lMzNo3sP1yj9rdp3vMxHZREkwDgRRCCdtIhFlEKlgRLofqQ2P21hsuldtd/FtZ/diiV4PmXTacUP6p9m/rNjvZ8kIrgHMCJJDt7v+0Yd6PUl14OdGgc8V2PSX992zRu+aN62byrE3wrEM8CgCFTEsRiFVBFJplSsglKwYSiRMAASmlUbJTwDCQAwDoUjCgPCWJZZz454ttwdrQ7Hnxo0etpGLf7ix1xSFZdRksiCxQOz5MJQJy3XQGbSCpLIoq7z3YZc/aK9fP9K2NmtWn/10CuiabM3Dy99Nx/TSWsm3zxETcRxCiRj6zsg4hJAxODeQIKk0WiaE6v9CYjhYKJ0rt7vi7nP6isaTTx/t1CB+MsfwbctwQFQMP1gqlrrpHbe5/MkpfbWOnkf3bJ1cmlyfFPnmdXX1rC3qmC3TxY9XpzeFFhxQ07E5jaImC6TQ0SXf2/W2x0tfJ9vj5wZsukJqvth1QSPkOTwJiVvroFAogBMLlFIQosAYUCp3IJfLw/d9WJYFIQCR6KaYBmwrVRnrR7onpUSsGDxl3jtbGT/Z59o7tVC12r+/jj+msZmVX2nmwYamihBGSvcnRxxL5LO1kH6EKC6BuQSxSKCQQyvL7rblFX9+ebUXqz6wSgq8cMbeGwxI2b9VSXFUxnSI4RHIhAK2hVhLa1EMwmTCLT4jScIXmcKP9aSEEN3sHgk3sFBYv9juqokXr3KxXgzQILtp/7Blg4x5Pk1CKBjw4gCKk1nTnYZha/tRXX4Lr5y878CM5V+RNfnoOmeAVeoqQFoSBWr+/d0y++EPrr/v48/asgY04XYemiHBLwa41mYqKCFJIvBsQ/vM9uD86UuMW/pKw+kF6b7QIZ8LsE1qOS5f47XdOzCb+54sRCBxiLQlEQQBrFQ9vFBAGRKRjEFo4isRLZV+uNAxLcKV0Z9J1WiYtqEBLYpjEJPAtG3dTQ6JkUW7kne0m+YJq3vJfj92rLFdTeG+OhYe7PIIiR8i7zQh8OLWhFt3dfhd6bQtfmLapAKwNAYcZmDqEn+/3W595qkvlHNfscW1ND/l7KP3GUiSu1S5o87JmgiCCLaVRyFMEFq2iCCnuom6NRDlp0ppLIbvG03cmW8JmeKSVNr2Ec7xsbTHb3v1A9f1BYnePP3QveuYepIhMQhNIA2BiHCUfOtnW1730O/7QgrSUtobbW/t3lRnPRgkYb1rcMQdHlxmAkogUQShm3lpWqFtr1E3Px2u7FwvTfhRJiXFr2py5FhHBpDzlyKTtpDYwP9qNuiMzKSd2t/f5ao7/9oXdFnf51jnwDZp3BH1tYb/YJNNv5kUPVjUgc0MeIVWpDN5FAKKkPF2j4gHfBk9VlD0FYsYYZhLKcyejYyZoZbFmk3IH7hcnVJXmxtU7lwK12QI4gQBSyEyXJREdOpD1rBfrY7X9F9njD5ucNr+k/LaQQwtFNoolunrxQQHL5GlxYPr0kaGRpNVHGyVBBRZngKPQyxh7rabXXV/tTt5H91u7Yk+Ipp1dE7Gt1p+0chYJspJCFlp5mzJRWH0t6Uclxop9/Vvtdwe9oDJay37u/mEL84kUdqQDFpkUwbFXGWMHXHVQ39Y2+3954wDRjQY9B9ZzvOJFJBUwpMBQsN5raNo7LHLDRP9tV1DPz/tpEO/k0uJxxPhuWYqiyiMkWIULFGgfgTXSWNpWFaLDGfX7a6d+P917Hrq5KOyQxx2b0qEo7gbA34JdTQFpRQ6ZRdoOoVIprHQE3+dPRf7fR2ktnUKbC+efWRNf+L9tcYQOySxQhj4cLkNyigSwaEMO+4K1K2LI1y6a/3mi0hLi9Y5P/X3cssxjWibf+MGrnFEE1WIwwihmYWABc8rlztTme22veL+D3tz2TTgDtUSgPT6ZR1ts5OYH4jWJUb+G9+89s5Zeg5tW2nKeG8aG9diWwAAIABJREFUcbBpmtUjLPmwIEozPdo08pYnvN6sUx3z2RTQktq/T973kIGue7+VBNQFAZUUZUJRlHz+fD86JW7e7vGVOWs0f2pdsjQjPDcltLMphuQEs6U1ZuQ1D05cG9q/MH7/DQdx+hITfn9b23+hILRbi2cKH3QFO+9182Pvrs38Pc9OO230to00eTGVs9KlUico6W4YrVVrAwppbsL3Y8QGx+xE/Hi7Gx794/LravVTNbbeNiBhR7sVtSLobjgd6kbUgLIlvDgBrBxCOzP/g8WtG32a1NcX51lf5lhnwPbA6NHmtv3ju+qccHQSFkGNFLhlghGgvVBG5DQuWVCODn++dusXVkfKmnz9aCfXGf2h0S8fZSUSvmJw7TTShov329sfWdTgj+mNofWjs464LhN2nZExCeJYAMTBAur8eNi193xycZ49a3RuMC0tquPUJtJBEgrIWDzyzwXW6K/DV+/zuKQvnT5q5MY5+59WFDoIQ3BhIGYmCrDe7DTtw7a94o5P/VBNPv10p85d1JlLPNOWtPJCx4bEDPB9d7nykWfWdP+TJhw8cLN85q+ic9EwHfKTiBBRmEDauaQgcqMfsIY8vjp39tP28eTZR9ZsK6LJdtC5OU0ZSISGTguGaSs/LPsQyrWgECcKVk0DPih7x+5w3cN3Lj/fC+P2GzvYxe8zAcCSGJQRcNNAZ8kPnHTKlsqHgIKUJjoknylT1hbrQ1/ZNeVNb59bJ8Cmv8Jzxx99YS0ptgjVBWoZCARDOYqRyhhoE3zqnMQ5+HtXTpze240uP+7FK46saejyX25kbAuDKESFAhAqWE316j0R7LTDZY+++lnzTjpzVL+NFfuozkC6nPhQsACSntrqypHLM/0/4w86sH+WPCpKnUAEZPLNmNtWGr3NzY89uCb7rj7z3xR4quWo7EbwX+FdrVvkbQMMHDIyUSD227MI2WfPayYu+iyaPdEy1h0WFLqywudauomJhM+Bj5Wxy65XPLJGTZYnnXzwwA2yxt/ioLBFXcaC9AuQQYRMthbzAuucqbNxTV981LRTYvjG7Ppmpk4JCkthpk0oQhAGcmoSy5+qJJqZzaTfkzLKm04OhYBgZkJ3/eb1903uockrLT8e2E+1T+Wl1nzeyoFIoKPgJ0bKvNyP5e9gxCc6lJ/PQWAQCwVqPzv5I7VvX+x/fb/L6wTY/vPzo3YdYnov2igRHxFM10GUABE30SXF9EWh2us71z01Z22IM+XcY/dtSIKnHEQwEh8OsVCWAkts+ee3pqeP/yzmvTthv0ubqDyPRAFiw4ByclhSoGO2vv7+T9QXHUM1OGl+msviXkT4yBi2tve0vV/Obrznjbd3rs3eq892U+A/Fx7ZUhMVflFvSYiwhChmYEZt8eMEu21/7UNvr4pOk08/vrY/Ly9JqxLjhCIkEoEBzJTWFnte8dD7q3p+xX9/edyRgwdY8TM2xOYg2h0fgCkJbqawqCxuKpeax/dVYPgbZx65ba0qv2YowRyXw0vKCKDeKYnsvh/MYguHYxpLDWyYl3bcBq1hKtYg34vpgD2vuf0TsP/PKXvfO8jB4S4EopBAmWnVlbAfd5Si+7bv/0Qwq7jb6Wk3f60oh8gSB20wrxt03YPjV5cuX8bxfQ5sfx1/TGorhC+7MtyG0BCRRZEoBV4xZNKlC1Rmj29evfbR2tNaRptOwXjBQnGnrKXAhUJnEEC4Tnk+MQZ/44qVx5lpu8zQVDxLlDuaHMeCIByt0p6x2MpuubxX9fVxR26/AYteC0gRlAhkGceSkF24UXqHy1ZlC/wyXoTPe8//POeHDY0kmFGrggxXPgiRKEuKQpI6bYvrHrqpN97G104b29zf6pxniSIllCGmCgEjmBk5zauS9lY879TxR2ydZuWnLYv2F9oWrG1ckiAhBtqI+ac3HPLTVaXT6Y+h09FcJ6SfturEwu1bnvBXdg49buOo4UEjLB2oQTMhEkXRXvKYufMj5i7vajV36qnfaXKNYFaNmXKSgIDSmikfiubddrnhhorDYtL4/bYcSrw3c5wyQ3JEkYUCcW5vzeZOehL9g2HTppGdN1z8GyddPzbo8FGrHLQqa+/Bv7z32c+b11/Een0ObB+cdcQZzYiuS5IQwgTKSoJyBhJFaGepA7e54uHH++qg08760Zg8KdyfZgHKhSLy+Tz8WGB2QA/Z/sbHH17ZOm+ceciourjjL5mshThJUPKBLitz7ogrH76iZ7xO9Rpc/uiZOsTfkYY2XkioRHbNLqlNtrv56da+2v/XeZ43zjpyfH/buIZ6nZCJD2oQ+KazcElsbDHyqoldvaHNGy3HDWkMSjOtxCOE6wBdhZCSaJ7v5HvrsdRmkzfOPGKPelV+PG0kWcUpoiBEllnwE4ZO2Hd+nHbGflYokZ7jX+PG7F1LyTU21DDL4cyLwsISkbT8NTXilyva4yaPPXCrTfPkTSJ9CuaiRBU8Q7YsooXLeuzDL/181wM2zJuP2bEJk7jo8sl5i/z6a3okxnfOPeDeprDzcBXHcOwaKJZvnxPKbbe8/r55Gky1qvvtjdveKEbGVpaRQU465RlUbLD1Osqh7Q2/Ps8xfQpsOtdyQDh/xiDHquuMAihb2w0ARRi8ILl582seO7U3X+LeEuCZluNrN04KCzKJZ9mMIAxDWKaLOaXkz1vf9JfjVjbP+xMOmthsJoeWIg+Kc3AzH8324o12uvrheT3jXzj/0IM3Ruohu6zTdQpQBkEnNU8aevUTv+3L/ff2nF+1cfrDMcB//9W8CEdoFVIgqcQmLoa6cthlj53bWxo/N+7AYRs7ZJqb6DQ83m0kV2RJ0RODNvmUeK/laan30d97/4gsl7dIFdlQERwhYRCKLi+CzDf+8Z3GupNGnXLzSmPHeub69zlH7NzU0fVcP9d1A0shSgIQyRA6GTFTmFvvccWfPvGgahBsPeOomznrPAkkrGRNFA33448URuy1TMvQY6adu8/9TSZGy84EhpEPPvajYVv/6onZmjY6qHxDuXT2BrbhhCKpRAW0+/h5V9BwSw/wvXrSDsMHO/YUajaYysyiqxD8NsqK074OjgPNlz4FtlfPOfJnGznkN6LYhohZFde7UASBZPN9ZEZsd8Wf+lTa0RezER8+mQ8K+5gyBiUEDAaWhPio4DUPX9Ee8lrLWLcxal1oR6WsMC0kjKLgiUnDMjvs1aNePnPuwc3NhphSF9j9MpLApAJdiF5bLLLf2mYNsxu+asC0tueZdOZx/QYnXXPrTWqURQIrlUKx1IViyvr2lhc/PKm38z93wcE7bEjiVzNRVOG7zi2WMKctdc3tVvUCa5NEWsrLBqRwuojLkFaqEhDsiAS2m0YXs24o0vDsVc2j9/r2aQf9blPgBEtF6GQxBOVwqImloURbrv7QERff9vAnsXdjR+c2suQc4vo5SeKKJ7dg1v74tQ9we49d+I1TjtzENhe+lbe4wwMTyqy5b5rFf9gjNU4765Czm5S6gvghiMNQBl0YEWOLjZaTdBdectgdRmfbMYKl4PNUtDBh2+589Z1fm4T9PgO2B04f7WxnJG9wGW5mW9pHBf0dRiKATpIaO+KKu9c6YHJlF37K+UdfPAClCzSwhWUPtpuBtGvU9JLXf8cVvGqTT97/m4NT6nlLxojBK86MAsgpW13+8M16bh0T1LRhYaIsth/oqjxkQhBFQVBM2bsOu/z+Ps0J7O3L+1Uc959LfrLXBn7Xs64MUCQcXhwiZdBgbilp2unmp3tdOeXvVx+29wae99d88H/AJmC8MK+z33c/y8j/z9OObh6YUXfYcXkvIruQxLroQj8wnkJEYjGvVDhz1jzzpt54D7V09f74w+4aEJeOJCqAxxh4KoWkJMCz9ZgJuvcOF9/6iV1rxulH/LBO+bclPAJMhQiyY7aPjXe54a/tPbyeccKoO+sGOkcX/S64vDGY1yl22Pqm+6dpcHxt7PZGv2zNu3las7HSUiGN0ZrE58qsdV0PCL80YfRmGyTBlBxJ3IhbaGX2XdNMcfyqbIRfpbvWZ8D25oSD9xxi2//QeZVKCcQiBOUOFM9Nn1MKt+6tzWN1ifva+Uf/oF9UeMRSAVK2g3IpRkFLiZmGPYZfcvuLy8/30bkHX5kV/lmOwRAJEyWBpEvGm25z7ROz9AWdeur+Yxud6HeGEhBIw0sYYsM9Y+Mr77yxt+rR6u7/6zj+qTMP+dlIi/yGFjuQpHIVyZ7H4byukti4NypkD82evfgHYzaKxf3ZKAZVvOKkSih/8AOn64hPi2X8x+mjvzm0NnW3UV4ywFQeqEHBeBpdBQPSTPtLhThm5NV3PUxI74tVvnXO0T8bZES/UX4BSmdLJEAY6TQod+5srrYa1XL3J2A9Y8KYFxqI2CPmMbxEIOD8ynlG1wU9+/3opIO3a7C8lwNT2AFlEKrm6g9KnRf2BNW+Om6PPYba9guik8Cxs0gsFraZbONNWu6umFJ0eta75XceGQh6AJUxypbonGda24xsmTj363TX+gzYpo875repuPhTyw0RRz5c14IXGWhPsmducf09164ror5+7hFbNwSdb2VtiqCriEy6DpGTwmwhfjLikntv7VlXM/z9jhff7pe2hos4RqlIkM43TllshTsPa5kYv3v6PsNqHOslJ/TyVMdEcRsFI/XA+11Nx466+bNtLOvqbF/VeafceNL5+bkfXdKkcyITBV8XOTDV2+2p3A69Uf166DL1/CN/Vpd4v3GkNoExhEohMNhvZ5mFU1YEtqdOPtnaqKZ8ti28XxhRgThGGUL6kNJBRBzEZmbhwrI6dJfrH/wkTqy39H/q5H2tHAtvGOA6/2PDsQJJk9BNvzxb+ift03LvJ2EnT508umFTV32cR2iFRHtwLbnQw9a73fDQNL3WpBNHpwfz9n/kU2qHkk4iyNbPnl+ORy7v4X/xvP1+vaHJT3RKCZggCLjx5GKZPrzHTPLGhO8ftQHMP+cDk5XjMhbl4hPempH5Y2+kz96e98swrk+ATVfu2NgnM1JxoT9YCYYF+F6AyKz1FwWpjUbeeNfCdUWM184aPWgQgjlcxjA4RxhrmwMQZJyLNr3wvot6vryvnnHgBhvYarYhA0qho9RdRAm95IPs0osHtjXUOCn/OaqirW3CECugyPnrSzx7711umPiJirCuzvB1m/dvF465eLhKLkh7RVBFKwUNCir6z39K2H110n1mjjv4/BoSX8J18SLKdBwYAtO66D8fsEuWf5H/cdb/DK+T/q1NprmTiguwaASTBAgTgdhqxJJEPFdixnG7XDZx/pryQue7jvCmpBqo1eQRp4NZc7tWBNfXzv3hj5tQ/oOjQgRKIGTWBx8UvG30mXUISP9S9ndNlvyh55cosjXBolL87cfTI//d41XVns7Bw8nsehkNTOkCEuAoC3KsHyUPaEn3mbP2H74FZS/my0lNhtSgk4lHX4k7Dl8dmq7p+de35/oE2Cafdegugzh72Qx92FaEOIohmI1WuI8vsYcfsi6LMr599n41/RO1lBJJpaL6C1bxdhKK3w64+KGTelTI108/6IcDHHIbpyG0xEaVia5C9J0szb0am8ndppscoEygoxxD5fKzZvjRnvtd9vBaBRGvb8xeX/bzwkXHnLeJkpcaxTY4TFbKQYWMz3jPjbbcs+X5XtXW06aDjlP3vckk8ufM5OiKIpB0Cl6sfjrEGfEH7QzSktTAbOZMK/LOa3ZdO/AKUIyBSomUNOHDEAuN1GVzS9nLPw+p/IPxhz5V79J9A68TsAzEUXTd4NSzE57Ht2jDYvHz2nT+ckcxJ5JI2g3nrKlO8qvl7WKTzz58RI2RvO7KmJixgsG49IPOQdNzcnGm02rIGs4L+YRtYsOEr5K5nQS7bHbDmoP1+nJf1mQffQJsb569/+kZoa5vsA1ExTZIwmFk6jE9osfvcOV9t63Jxnr7zGtj93eHZEUXJZILQhBocZEScCnv7GeMOK7H2znj4uP+ZBbbjqMkAFVAxs3KjkLHIJflzpBSnUGMGCUZwU9lWhfB+PaeLfe/09s9VMetHgVevPj4HzWWO//YQLUxqgBicp2f0jEjdAf01harTQtdHS8/6BjmQRF0xgFDOU5ApLG/bC8+F9fX7kaouMFUYsuszeF1tMNJpyolfASxwCL+XmuIE7a++b6XPg/76Vvj907VSWsRJUmaG9rYARSCrj03nt/84py6GQdQnrojX9ecjgOlioLdtUA0n9ATjNtD3SnjDr1kQJaeryvMRJGCxY0pUVTco1QqpdKZ7MO26eyqSgrUSre1UrnPXfamb/RFTuvqcXf9GL3WwKa/nO9MOOCeWsYPt+IAJo0rVRC6EiNZatgbjbxq3RotXzn5qOzGVkcbgeCSUkSMQzEOQ6mJjca2h2tg0y/BO+Wp79TSZAuTRrANE2GYfFTqLN1Iqbouk9EWOobIddo/8kr77nL1k5+Za7ouWKfp2JsXrK/HrYuzrGrOly790cjBofcfxy/A5By6eUUxUd7UAhr272XVFK26bdllvSSV/Aa3LYQcIIqBBuRYBjq6M/b3z+VrIFWCcrEL+UwWkVAICY/bgvC6rgy/bM+WiaVV7bWv/v3V0w/65kYOfd4gAlHgAdQIO4sdgxRRW5iO9WguU5tvK5RVKZKTSKbh0BUDaTXfF5x9+AsqWLC7wROk3AaUu7zrohK93LCiO02LjyIGQxwnXhfsw9+Y5zy1OnY1PT9aWvSfSuhpb8+t362L/ndwbwBUq+vfX7CAfR5NmdYa2HSIRKZm0QdOHG+oa0hxhNozhRDZeW96xY3XtX7/1viDGgcgXkggqGK6PwJFQgBG6SNNxohDNbC9d/lJdabXvsAIO80019U8Yth2pjNOIocraWkm+hE62kEOHH7DXyqeVM2wKV3Thtp25meEqe1UkrSViHh6iZW+d/+WW/qsZJGmH8u2j8/Y9fuWlPG3Dz9cdMWKF1JfiP286ZvUgv9QEaOpKOI/fzSn/OKK47QNZtBGuW2d0Du2lrKhMeTc+Yr9cvfrP71CxooXWM+h/7/VeSl6+xL0jHvt92MNOe3jf26Sz+zklQPAcbHUjybFxfp9epuLqVPqaj1vBiFkIKVArMvHEwrmSV1bnqXr6rCwsw2GYYGYJvw4QTlW/4y4ccZ2V94zZXVe3k87n1Z17UztUYnv71JnOm2+Yd2226W3fbDieKVAPjz3iJZaUbwwKHUil05rAHq36MU/drP242C8XiQKklkvRZKP3nAlyf9vjT8m1SDLi9Kun46TEuIAkIodY0i+dzaTPaYUlRHK0E9keHwxP/Ch3jhhdBGBJj/5fg0R37W8YAg4LFqfXvBRR9dzBsnev9vVtxU/7ez6/Xi1461RDSZO9hUrL7KaTv/OZb9eqenmpQkHZDh3j62lqUPtiPWPmDFloYVf7N7y616VGFvd+6XHrzWw/fPk0Q1DsmJuSiS2di9TJeDH2ohb++gsd4vR69K+pg/w9tlHDm0W5Rm6Dj1hEoIwKFBdKeHupunW/5CJE8XkUw/Zp3+KPpPRqk/sgzML5VDAtQ0gCdBV6moXdv6godc99c/uOfersQv83EY3+3OPSFtXjTBYAl8ECLj14BJz6aeGE6wOEyo9IE7Z++eNhn0TM2vQkVA5V9Ft9rz2j5+owQ+0jDaHesHp/cAvthJlSt3QxrCS9lDutPV197zes95jEw7IbGTUX2uWOo+vtQizJUGgJEqms+DdUrTtqJsnfmZw9KTTfpDvx1MTLIscXIij2a3EHvvdq+741BCB504+cFg/mx8WKGWUqXHn6ub/vjz+oMYm27mGUja0I4ieSZj1u29ccUev+0i80nJUdmBQarNsg+tOYq5hIikHyNluJQOlBAlu2CCKwyfGh50GP7vDGPpEX91H/QHYZAD5XS5jHc+VIJYSWBqKJUvSjRvt2fKb/5IENQ9HBOwfeVnaNZO2EZVKOh3nbUZYv6BcbKytaZSLWkuTu+LksBJvby32zyjRka1Lp1LY6fJ7F2sev//zMbvmbfkSdQIEXheyVkbP8VQMOSoRCoKTYuBHYy14jxXmdQk0NJqeqm10m9i8FUFOB7YPbH332IzNropJVG/ZBkgYws5YmF9cCGbl4Jr95i5c1HHU9r+Z+PLKPgIvjd1nz+F16aeFKFkw0licOI8scTYeszx9K9rc2Yd+N0OSP1JTDeQxhRPYiCRDwbHaZyVip72vuf2j1Xlnejt2rYHtpQmHjBwo/VdrTF05OUYkEyjDQZdwLhp69X0X9cWX8bMO89aZR+8+gJT+CRlVgA2SIaESgvHfN39kn4SJE+WMX/zoUlsWzqVBEZYChFCVPeoKo0T5bQnBgf2veXayFsX/1fXPkY2p3B31Id2M+QLKshDIEDylECNBCCNZIJ2BPReut4Re2Tj9xd/BpNNSSmxErDwWBSJq5anBOy6r4KBfiM2j5KZ6iBPMMIBtcCSEIxQEShk/aUpteZuWSHVZ6DwJH3STeO8GR0CWCpVChYpaKEiF2YrvufuNjz7/aXvVYQbNaf5kk0G/GfklKMfF4phe9oi7yYUrUzGeOvmAEdvWZZ43Ai8L5mBJEP992lzss7pSnv7qv/6/qklvpbTl9//qWUcM70+Cd3S7H6gEKWaARRKmoWO/JDqiMtKZOiQe7u4I+Imb3Px/sWRrw7OeZ1864XujhmTTT3AiKZUJqBTwLHfaO6V+26/oiNBZDhvmrSXM70hDNy4yTQRlH6aunUYJ4kg9pRJnQgCylTLlgRFR36Amry3HCQOzfui62SfNUulUi8orA1ICoQqWNCv3WFf1FZyUCeFHdbQtXJrNpb9nwxolAmziZOv5kkS+Od+yvt2TtfDa2LFu1uj848AUPVyFJRBdWSSOAFBEiKDsGMy0EbYZcFMNhdZS+67Dbnrkv+zN2gwwsD3z90Eu9ij5HeCZGrTHqcc8R4zpAdFKPF34wYSc8C83lUeUTUBiwPIYXCePdgEsYPZ5I6667fK+4MeKc6w1sE0e94MfbJEijyS6Ll4Sws2kUAolOpH/n2HX3HPHutj08nO+c+bRRzRT/x6FAFQXpBKq0q0osvglA/jIFkybRj4aHD+ecugo3eaPxwqO4aAYKSScLmkrte+35a+ef336yfvqkMijDNv4lQXmuAmHFRHQhINYFEVWQltcBoxMcU5c17ymzWOW3/vUUw/Yur8dvWGIkJZgIDZTL5ZMvpe+HFpFdbILf9Fo0vNU5MG0GfzIq2RM2NxCWIgPHbi45tHZqVYjzOb/mDXsIzMuQeDpqjYRuJ1GIikoszHHIwdud/3Kiw/or+oH4w47JSW9G3Mmg0xChMpE0ak99S5j8P9Xal1f6gFe02MpWRjlEAVENkiuadKMRarXamRf3Im3zzxyVD8a/EU3K9GSNwkSmCa/NwjLh8dUEeZYKHoxLGQefz+z9JDeFB/t7b70B2d7X/47L6NthRBwXAvlUglFyz5sk6ueeGDFed6+4mdDWdvsGTmmYBgmZBTB5gw6AUyYCkmSvMJjtgVVcHUEpW7OFoYBs2tq4Sn2lO+rwzdwzNuKhfZDzZQDwhhi34RSBIwROC6d3tG+IJfJZ2qKgc9d04IqhkgihsjJozOW22z1y4fentVynJ0EpVsdpY4ySARKkoq9ryadR1giEERCpLxKXTsp8hC67yWSx5PyoDGbLBfL+ffzjhy8aVL6KBWWDCNtobVYQuhkT5g6w63Ey2lQ+zieeRUptY93DAlqKvhU84LBLEiYzEKJMcxl7inbXXVvJeunr39rDWyvTjjolCE0+iVT2mVAEYgAyspjcWx/e9ur7+l13t+aHuzdCUed10SCS3uATdeJ10XxPcv+8ZBLH/2jTkEZ3LTJu4nwNhaxhzy1kOjKu4LPiQj2GzTPfn/28FaDla0LKOIJ3OK8Ulo5BlxYSEVAomIUXYUk7aAjII++94F56OpKJys739QT9x3fnOfXQPrwdT0xSS/YyNnpcm3AnXvyvt9POdajXIRUMYWYJRBUS2GADARUEH8jQPqtnCJHWk761iSRVFIf3CxCEA1ODsBMkJBggWdsP/LXK28Tp203/Xg0zaT+4CT2YBMTAXXKsyJjix1X0hXp1RNH92t25SyHlW2mACpcLBXG71+fL0/qC5r09h68O27MhCaSXMWI/oyh0ls0UuKnrsN/6otgW8I44kqp7Jw3z/QbRrb0XSn3l8cf9O0hRvJ3J4mg9JfBMFGI4+kLRGalGTYvn7nv3oNs4682UfD8pJLTnLYYSn4XpMVBdXiSlyCtsxa8jsSg1GeCCmEYbWXGL/KF9WgdDV5iUm6tPf5SMcRJCgZ3wWgEr9SJmrSJIIngCwLCaGIIERpWOoxo6pW2zuKxnAYlERcmuJnUxZarqwLrvSvoC0WU/XLo8fsUEW2Ktu3vuNYRQWLBNl0Q6QdTg6h+n2v/9kkXuH9dMPqMwSK8zlU6cpAjlFCtXrDJVjf/Y0bFNl165cLB1P2FJRMQJlASPhIOWIwjFTFIqeBRifk8v9uIKx5YJ93e1hrYppx96AUDUbpYV+nUP8EIfGLi4xJG7Hrjo2/29qKu6bj3zj324XzUdZBr6+qjZThUl5ZmWJzgW1tc88QLi8bvnZLKXMoMZWuJzkoqqqgXKbZV4w1/mfX62P2d+lraYvqd4/KOQ8sigi8lmJ0CF0BGSESRjzDrok3X4lepUTtcfv/Ta7rfnucqkk9Q/6xjiG/FSbcvQsRiz42vfe6FBSfuPTDtuG8TQvIaVAUDqMlQDn04JgekRLF1Xj/bytppq/FtoZAVuoWhrV+awrxQ+QN1ND0laZiJUWoXov/mVz++UkPw26cdetRAJ74rIWHlopsshXZBf/26Rc5YWW7h1PFjxtQhvF9Qr7s9YsDRYWV+PuzSO3+9tjTp7fOV5i/ee/c0E3mYtpESBsSMwiuVd7YMdhgz6WlxWAa3XZSpi7mLrsD5AAAgAElEQVSKf3u3yx/ok4+stq1tvlFye5MVH018D5bhosOX8Bz3ggeMLS9fUXXXuPfm+G+f2uw6N+hetUHEYJomdDwlQQIZJ6CUI4lZRJi5xODyKa+j8/Ea4U4pZlWhGLIkqksbDYE3n0NkZaDTwByEse53m4Iup86kBBWJEJL7yqh5vSsMnmQG+VshTmYmrq14OoidhQu3yNc4ryYUptBFNCv50mZSlJkzuiLj1p1vmBh056Lu7/bLe1Mtnh6qy0CBJZjpJ027Xvu3JZo/mvZHy+kvI1y8U45zmLGJQKp3Py7M32Fmx9Bww0GLDqqzU/fkImboYHdtFhBcd6ATldaZ+p3SkmqZq9JCs2HATsulm/WW/70Zt9bA9uZ5o68YqMpnqziBVAoRBVQqh7Y4vemIS9eNYbDnYPqSbTPU/LDZFkO9UjtkEiGXzqIriJMF4M0jr3ti6ZzT9x/ucPkOOKk0YzYiCanwzsJsdnuzrUQUY6fmUtblqchnuiFvSBh4Op0klLaWix3NOUPCL5ZAcnXweHbmooLYsrexVp/FAB2m0i8TLQKVjo7zEDIQrL2robS0vdyvecBdtmGNFiCIuY6rJ8o0zb/EUfB9JgUUiT7u8Du3tA3n+izJH18Zx7R5MVrAaeESofCbmLoExAJi6y+L22ceNPKW13VUxX/9HnhgNPvGu9Ykp7Rwd8kUwlirVU2YWwx3GvnLx/694nh9qceU3/pzf9s4OpAl+H4Iw8xikeK7j7xq4ku9uXB9MUar6Q39wjetQuswrU7pzIVSlPghTzWzUueuFld/yTlcB6mii1tYaLi/3bVl4ol9sbb28NXH8dxcRuRJEsMmWZSog/fLarO9rv/vRkIa1F4/c9+htUZ0px2pnU3mgBlupblKnBTBOYeUpB2Ge39nbN5vEmfKQndm/K1pDbF2elXsVEued4lhHVxj8T+nTRMyLEPXsIGbQ1uhBNOyBTh/pasQ32vYNY+1xl1tYW54vLwR/6OT97XSXD2Vsui3Q5boZuOVtTsjeurbbuZ3y3/AtIbTnEq/YfP0cKl7tRIZL66vq9nmzO6+vbpB0xCaLKa009D2aqtswg/EZa395lwctqW3sGz7OYca9Q1WDsWOThiGAcu0loKret1u07RchISg1fMemzuEHTbqlJW3E1xbXq01sL121g9uGqiCkzlB5RAlhChJA10kM2jHyz67wevabv7llp82NgZdC7LSY5wKmAZFFEUoROq9tvLgbba/5ZZkzoT9DkpBPqQqlgsFGkst8DwYIncsRPmbjm0+HpSKRtYwYDj665vM80T8P5SoXTIZ6xKlChU7RhJb6ELuzE2uuu+6vnCIvHXeUTvlw9K/ODUrqWCe9N5Y2j5vtybL3SFrpZ5nxECcSAgrhViK61NGaicVRbuoOEAiw4dKonS5nbEnGyptCcUQksSPiH9ASkZjKMNPEt2WEBY6A/LTba998Pcro/Vfzjyu31AsndPAAtMyTEQxRajctgVOftDIlYS06NS5wbI8wy6X+usqaul0DsVyEM4SUf/lq1OsLV9X9fz/a++747QqzrbvM3P6OU/bRu+gCJEuokYFjYUUW0TEiiXGWIMUETXZRCwoBg2+KcT4GjUWsGs0+lpRFBVQEUSkIyzLLrtPO/2cmfm+eQiGrAssxcLmnL/4safMXDPPNTN3uW5eZKeHLG0ywqImqghs1wMsJN5xbPsYQxYTsixtEgNbJCIBR5UhJyY2f5Gq6rIrXbVdfZf//dPxY47rkBJeznqbgGvJCa4EjpL5eIVVcej2ToNXrjuvvB0O71bCLaOSiMkalQCYCLYXgaCqIOnyWw2+/xeX6c9/tiosNBe6M6KLPwpU+baQki4Q8F0ZK9nmvNAHOZWwal3nXlvU/ypsSS3fmQNm8fjjB7cTUwuI54GU0sAFH4qFwrNZoeLMpov0+5cfddQBKe01GgoYUxUIw5/kGxNDu91/fykj5N1fjh7ZwxReAG8zyCwENUzAlqx9bIjRIpoQXlEMY6Bi6MjOW2DoKlDLG28oWCaRf6sfUfAlGYisgUPQebOVvn9vSfxbS8al6T17TWyLJv90ZntqX6FgVNpuhiIFXkStGGrdBt726No9aVRLn5k74dwzexnCI1JgAQ2LgLlRlQFYIP6lhz7k0jfgDdTDS12rgj+15CVkW4mNUbiGgfocBTpPxLgqnUxCLpcHx48+LjLxdOzB5kyZ/IGkkAPtoB4MXQfXUoubA6XHoF2ETbS07Qt/efLlHWV0DyYiIIwhHxb+1/Gdq9Ia/j9DUYehUACeGx4I8kafwFGmqC4Vgao08CAi3jU+dgfJmnaOCDpEDHiu5T1+GP46I5JPFSy1CZAERaYEG4ncY8TtW5Ufml4fX3fhRUnWcG9GjAAFBGyXQqSWz1lpHHhWc2ERL088ZUAvDX+YjkLwra3aiwir7y6IghFfd7zi9m1/ffLpwztj9roBETjMAZHvgmw0fZOZvY7f17GQfjejsCECX2R5fVK9HNbkwmHHNLMLbel48fu2huecMt0E5xoxCYBECTRmQq0n33jgtAdv3n7Be6/64sfKg9wZaSEA8BwQKQKMZS6ECUxRF9dG/vcPvP1Za0eL5Cc3jO6RdJ1lMhYkvmGgfJADApoiQcFx+VHuJxuTVa+0pEj4kokn/qVKMC+WAEGBuMBkzAiV+nfX+i7dXub+tesuOLQXzj+foF6F64UgKinwBPWX767w79lGvEsnnj+9guTGG7INMhIA+XKweWOxJ8qIV4EsXc1kWUKKCq7r8pSvO8MgN1UGeNbQ5CN5WIqgZiBHhGh9Iew2Yua/xV13Zxxacu9eE9uH155+RydwJygyhmw2C2JSh0jRYUOO9jt8xjOftKQRe3rPpzdc+LAW5MaYKAIJkdJRmMexFSg+vcdtTz/BgzgTYThDod5l3IGHGAZGQ2CRMFJA4nWAxKMiYWu9SD/EH3m+M7JP1dC6pbWLDivPSG+zMA+JpAaWFYJHU3/uOv2xX+yL3Rrv77obzniwLHDPEQKJW1qgQJzLfIhWqSn5JYkhwB4tqcJGIR0ZRkJBVNR5koKBRREQEl7MWPQHWRRlUZDAIWSzg8MBHnU7ZEBdoMoKhAxDHUWvurnMyOZWc/4jXTvp3EfSOh3tFWohIUiA5SSstYIrD5r59D3NjcmSX4+ZpLv5aXroQVpNAaMiZG1nxvIKe9K+9Druaj58VH36DUnHv8lAFCzBB9kog2JR/vFB0x56gY/PqmmX34KyG65TiQOqLAEBGZwgOb3THQ9M2pvx40fg9lXOuylMBje6jSW5JeSK0CimB/e/46H/0Ot7b+ovHijzC+eajg0picuWR+D5HmiqBoUwemtTocOxO9tlvX/NmZ3agL9KQ0zioUyGLEEUeNzpDyiZhvVWePSTiX5v72rHw9ucrqxb0VaUujh5CwSZF1XS5gY1yRO27cJ4uBD26eSOpnSN5tarlFkgtW0D6y3/s7pAGHbcdgKWa8af924byR1m0zoIQxeSqHyFlbcvFVP6P3jgIAUJopBAeVmbl+sa1o1xINQUFa8RfFdK6SkIPAwuNucGHcqP77ULZeJdzYOd/X2vie3ja0+f0jawbzY0BZzQAcGQIesTyHryUYfOeOY/9ND2pqFNn+UBmhVE2qAxJwFOAXQFlWoYBBK26x2348C73situPJKRU7XPCZF9smYcssE4iZ67uGYDCDcRrnnTJKhzglWR7J+3CG3Pbya2zVW5z76a3kKjQ3DIhQsFySjDeQCc0i/O//2ZUDs3vSF2wYHdrbfaSfBUCFEEBDKCoJ/PIjoZqQqQ/mgYL5iEngsF6LzU8B+ziTpbqRKwLg2CaX344CO5WF7fCPhEO9nG9z6B5KJ9LgywZymIhk8QthGhi/v/7s5f2yurdx5cWChfLGAyUGIBWAIGFxA8AWTD2+u2ji3r50brnhZDrPHJiUBQisAJmrQyIQzD/zdM4/tDR6782wpMLaT/UInRTpeoD54AgNbkKJGJ9Fx2N1bg1n/7/rzvt+ZOG9ViiEEdhZU2QQaJDfmU2rPbtVbj1R7cnH7Wg9V3wz5vCYaMt9AcXtX3teSbZu+9+nrL+jUU6S/zTj+Ao2QO6gYaj6xIZ0wIefTl/6iDPzhzkiJj08fv+NFihAMxUACzytcytvMw6lqcw5kQWvWDtq0X2+NO617Nx2vAisHSU0u5eVmHXoD2VK8s0Euy5jlxkUiY5eVgdaOuhYoMtcztCGrSWuzWvqEV4PuK7dXFzmyp1bPipsyoolAlBEPIXwq8KIDRVHsI4giEIpBxOqabLbxaFwV1PuNaIxq4PuSklhKeWOeAutc4fIB9zz+tcrs7zWxLbluzPlVfv7+UgwZ9//LGHJch91s+7MDr3/gSz20PZlIO3tm3qTRF1Qh4b6ESECkHqAwBMo1rmRldgdx0Bi+xS4RW3ntXDEsDhUjAUQBl6ohUYZ8iEAhWAZbkvM1DH7w/ZsfXcC/99YvfpTpW26uj5wakxdxAb0NFFBq/qsbpaN+PmvWVwzw/Bn+o//1buTYlSpsBf56neTbKEiHKCI8D+isSMKPEEEQeDiAGJJCFAR9Oqbo5lxBeSKQ4CQiIQBF3SJEUCY7DEkEeHrYklAJh20oNARlqYqX05AcLlMMQeiGm5F2wEF3NW8OWHXtqJQZBnWSrsuua4MmC2CLiC61nMoTt1Nz3TYG8yZcWtUOZddpLKeWpRNQ39AIUaIMVrtB72Nuf/YraUTbjx3fNRTbf872xa7u9fFjKnpgZ00ZoyYKuAothqykzZ8no6O3GcG59tpB5U6tlt+cVvSQlzIAZqlQp+rDD5rxyJt7OhfnTz17WGWu8G6GIeBeaCRLUPTdF99fp/6kuVAXTsKHGIZkZMgKSAYdnTAPKPLAl/Tne0pDT95VtbOlo0bJlZUg22zzT/Xysvt5Aic3wGtaSVD10O4zdp3TvHjcqKM7G/obxG/kTicI+ImWkgcNRUsQAY4PeIY0kwFnKZh6ArJiwBxTnr3ecydSKb9p+zHjku6dUGFjuSKgMPTBJQHISaNAQ5JEDq80JkARaF4UzeFdV0ifvNG3XuhZ0OYYunyK7xZAxDJETId8srx77xvvXbOn49CS5/aa2BZeefKRB5ry3DD0ICA+CCqvxi1Dg4//3G/ac6VVZl9fJW/ogfKCJCUDeNIchhB0hIHXOlsP4bGDb3vxNf5NTiBJQVwm+sXuKMIgIgaYH1kpLa0sDlJJbUTPO3T6kw9va+OyG88+K2Pl/55QuWZWBJaQgk2eePmwGY//oWk/SvpYXfUzNAHdFEnKvc9KbW/f1dGAv2PBtaNSVQqpk4O8zJ0HJdufyOYwykbxdDSQuES1/Jvuy9lNn8JS3LFXpxUB0M4BYiAoOtdcB9EGkKnAwsA5pWJz+h9rO9QnkCKuTwjJBA4QhB5durkK71D7f+m4n/TtIIqfeLzUDl9pIxcsWfrCl6SezeUZvjf+3Eu7auSPxNsCPH1N1nWoIcLGL4qkx47sa5yETAEmGaJ4cagoX2xwohN+tF1dzD2ZF+9fPWp0d4U8KvsOcLtuSBlskRLXd71j9n9EsC+77vxHKqLcmQQVgduWkjQDGwJ0f9e7H7twT4+jb0z+4ZiDdfNhbLsQRSLw9DZflKd1uuWhyTvqC8866KVoaz2Wq6LYA02SoNGjry5ebe40U4Pv2LpZifN1zH7EWPhhoCi/5d5UU9UB/AgExzuy3d3/bDbdaVtb+HG2K1YfCK3scNUUQDIwNNoFMDQDhMABSiPAKgbPjiAhVgS+oL69Mire9AWR3jtjxpxSmb/tr49uGH18KvJe0iHiudgQMAquwIvNyKAFDAgFlteln0dM/BufQ7zvXYi7zlBQJeHhLZIEXqQtWV6Aw0b84asCBA9XX1IhLs1m90U85F4T24rrRlWmLW8jU7CEZAK8uDAVEVhYXdpQ23bgnqTL7GrCv1991mntXf8Jk1LweVUhLINOATZG/kfrM4VDtq0yJZtIO6tWtJ0yrviBEYDg5korXj7CkBfVvx5466M/2zbRS0WSSfunTNf6MWIeCEgCW9RJjUW6Dmti6OTHkipBnJYi3i8UnkKGVGeZE3Q6sQXClO9dM/qAdlr4mcpcIaQYdFkCRHNAPZ7HmgRLTNeucVhfLnK5+upj2xhyuBEww7wDgqiBb4eQkBI87m1Box99v+fMF4PPrhhydCZd9loYEkFmJkhR5i+vfGH/orlJsmjcD4d01hPPMcdrq2sSFOwc8GNuDsSFNVpx2FcEEi+5REpWFhelUPg9wldeREFTZPjCY0/NNg49vSmZ88j8np5wYZJF1YmQttEVA7IhhUZFnzrg5r/euKvx3dHftx7h9UfLBPd0BC4wHikfIahTjEF9b3v0w+2f+/T6s0/N+IUnFR7L79pgEB0CNWEtpajzkXtQgo7bJJdVn3Z1uV+YIfkEBDkDPjOgIcJX9b3z/maj50upR076DoMFv1QlBr7jgqYleUX2JXX16UE7+m3wfvbr5l2ZBn+GJFBgImI2QgJf82TJBJEI4DfYp3StHPrcjnZ9vK5DN0l4zSS0N6/FQDSAYmCDqCtAvRBMXtWLkIiIbEWk6Y/nifFY3nJW7yiUaf7VJ7WpSmjvmcTtgogPkR+AanCKY6XULonq0BgJs3Opsgu2edQ/vOaCw9vh4E1MbBHJPGicB0ynp35kFaduvxi+PemIhAjJWRml8mQvxBdttM0n91Yfb6+JjZNHmVb7XiaTGOha9cCrUoME/EdCNhH94MNuf2qfVsbhq0DCxIs6MtIbOTaEXFtLlsF3AsjrynkH3vrog9smOJ9YPcKqrBZEJpUlYIEPaRSBE4RQh5S1mwgaOOKup7+s6s6rWFX4jXUpFhoyZuARCoVA/KTBqhq8bRLyCf72L085uo3K/miETu9yzLW1RFjnIqhLpAYfdct/GpGb+5Eunnz+YIM2LtBkBkAV0CUBPGtjKdBSEcugliZ+0evO2X/mhLto3Mij26nuG6LASqokkpgEhGRwHQohSCO7zXjqn9wuuNl9Z1JInVslXQUgJlh55coeMx/7n6a7k8+v/eFRGiPPJsREKnRDoFwJTZOAh2taWHtvwWf4iKZkuOxX548RrLqHM7oEmiSDbRVBiAJw5MSN3ac9O3X7Pr475bRBBgQzVRIelgIkZHhNzKIHgWKCY6bu7PnbWRP3dMf09qQL23cl0XKJ5E2kkZKKC4mUz/M6OrjpLvOzSRcmDCG7gdFikhOxTjAQbMIWbJx/4C0P7XaqX8n2Sj6+2fQaJvMcT58lIMApcIhxWe9ps75ix+Tk1KercItIc5MqdQkgdEABHvGvQJaI9ufIaNNcWh5/rls7a3x7Hd+mslDgphPu4KIyt+kJEIQEdGyAwsRfr2lI3docOb46/rQuVYQ91xaLByuc/Ll4A+YxphHImgEiFXO06F0QkmhBvtzk8z/YmRrIvAljDuugo9nMbuxoSAgk7onjOcu+A5Isgu/xE0f5FzlDHda7+r6abfPhw2svmdKWWDdrggvIYGAHPjgW+8H6Mu/NbYvn6xOHtzVp7uGeRrcRfpGnmKW3bCG0695WhNtrYuOd+OjXY6YpVn5SJ1ODqJjd2i8tBWtcVj3wd09zuaZ9dn14y6U3q7mGKbqXh4yulhLCQTOgzveWLtXwoO2DDUtyy27GKpNFhbufk4oEUbYRxHQlLAfxx4fe8ug/tm/Y+zee37dtMbckIxKwiQ0C90SF4sObrM1jB7f/CVkVftaBRXSqiuEcSY6QyIOSCzbIegVsplJhi2H2OqL6T6UI7Z1db08888hOJp3L/AIg0IB6PmjYh4SZhi02+tx32/bblpu3/Fdn/8z0amfpugSBHwEJEUhKBbggL1olrT2UTxD+o1tXXPBYQiKn8xglrCVhQ6138iF//OeXxalLO44JPxothtZfMrpmikwqedhcRoCn2LheARwmbKzVOvXcPoRg0fjTuqg0mF9hSm15ELSkJEoR5DIFaPTDk3rNePE53le+4LQT0UQkBdcGkaMn0wkIihZooQIMy+Aq+vxVrnPq7lZo3x7HTyaeM6GtGN0h0CI4qAihqEEYpKb2nja72V3gygmjHzDV6FxEnZLbKCIYir7yXt4pP3J3TxKlxSNYMVUL66/zmAsklYEGnwFh+u39b35s8vZk/dKEc40qGtzTJoHHcqF6Xt5Poj6URL1cBoGWgi2iesKQqY+9vH3/uIkCLOeujglzrMZz+kgISEZgufZsLZk4NYwiSWAIaBTxAt4fElv8fvsm+nWvX3Hi8CpdfrhKl9uh0AXuUaUkKCmd8IWRV7aSRRWKW5yjih3L3tsZofFYvCpgv1ZpcJnGNY6RULKjOZ4DeioDUeiBCgHYvkALuHzkE2q3V7bfvc8ff+rDvUQYw4tiRzqv+ypBPhsdVNM+WFm/tJK1Ldvy4zamcFebRKIryRLAcgoKglK7jIY99zYXe58Q20vXn3l4dxnmaYUG0BkFWZQhRBo0CMqmTxSlz6nV93+5K9rVj35nf59740VHpAL3zbYawgbzwbWKoCQzsLphC7CqylMG3vDwM/8xUap/omdCOSuHFt+vgUQFMBCXLMdvvrsGH9t0Z/LmxNHHDzTkl8CpB1ARuGEAJBDeCAHfSBg+GQvoZyoRUrIqgs8C8EJucM1AMcL5eipfOPT2e5utPt+0T6+MP/W4HmnpZewVQUNJCD2enoQgH1DI4eSoQbf+/fFtz6ysHntzwq2ZQhkP/OZ2wnJwBA1qQ/G0Q6c/8BS/j5PWusljXk+BczQVfLAIt3Omzlz0OTzO+/h69Sgz3djw245m4ipCPcxTekKfR78zEEQFsAggIR8KYQC5CI2Tzcwfli4FUlnpHdZWhf+tMrWeqkQjyyqKgqxDWAoWpaxoOz17tTly7fz6uQPKAP+pQksM5vuCgBGIMLfpGHw1z+UJXL8+59/fUhHJ5uYA70NnDy81A7szzyTyZA/yIWLZKN3vkFuaVzteOOHcY5JQeDXNWVhm4DkhaLgS1lnssMEz/z5/d+fi51eNviAj5u4zUiLURz4QkceXyZtcJhx58NSnV3En0vHFT45LK9LtGcD9ILSBSD6vTw8KY8Czc0yjHHIeg0YRLd4UWiNza9Kb23fzdWaHo9qp+o0JhLqKPLVNkoBQCpbvvIYwjMZYfECS8MjQsSGZUMCzLbACeokHygMbyl2SajD7lmmJa8HLjyrLmGKhWAdY4emDATU141PP9r6XMFIQegRcN4DyijZRrWVfUtTlOX2q59jbiJkrzqQFY3BCweeZinQmcXKpskwC/GIWBK53p6jg+RSQwAvx+CCDD75kPLJW6X9e09jHj6ec/HZXTI4QvEJJuThgCHxb/KkoIoNhepEkwBAVlwzKIIkGOIJkZ0X5x7Xqyrf31tG0T4iN21T6SPqHySDXx4i4hAuPDVMhH1LIC9KvB90x57e7O4ma3r9w8kU9yyR4SwmctszNgiTzut88gFWFgqw+53bO/HTIz//Ta8m9Yz3ldfn2JlKIw1dtBFGIoAapJ/dtRu1ifvXYH7bxsv/QWBGosNXJoCOj5LXEioYirllFJWAUAeHpMHoCanzy4kYaXvnDOx5b1dI+fnDTxcPLvOzrZuQAihBgvirTAApacmE99B22/QRZMnn0/7SN6i+TlBB4EJLrq1BUKz5bUZkcsH0k/WcTz36mPXNOYtQp2TjtSPrcwejWAvbLDRldWmb5PUVOZKkUbCrmLV1PXJnQzeuh4PSEyAcJ+xByvTpJh4IT1SJJp5iJ5QaiCo28iFL3CRDxaCTpJdFGGaS60Lb6FOVwbDKR+o1KBIMHP/NXaKoJ2cAP6gNy/2ZMf3vsjOf3uEjKNkw/mHzWFd0UYSbYWYiiIhAxAktMzv14VfKYHRmb+bwc5EufpgSvR8hL/JRsQSbY2JjT5bYHR+/ukXjR+LO6VGFrhUEsyYtc0BMmOEEEPkMFC+gKU0u3SYDaHoUR8iwHNFOCAnVBkIQnNUCDJQF14bX5uEKLzcv+6WrRda06iUKHtKSrKGCAmQRWEJRq3rpAXsi60XlDK/tnlzV+cEZFMvEI5ilVvPI94mYEBHYg1YiKISdkuSJwnVL2jRc4wFU3QkbsguOcjiXYghj6gFv3NVkDAoj/EyJBAo8Jju356yuTacu1rYSuSV1EJKgB5QspBYR5rrQPmqaDEMBaRKCrISXBK7qlTCMmgPsFCP373PHEV3TVVt14+lzJrTkyoWIIsQGMYBB9xPhODylU4I4zmSYgjErZCPmNnn/6wTMeeHV3x6W5390+IbbSUeSGMT8vi+w/mVzlg3tbkAwgaRAwobjei4YefucTX5YhaykBbLtv0aQL25uB9VqZig6EwAFNAwgFAg4BcJhoOWp5/37V961u+l4uqNcjWrlOcra0T2AEEWVQCNHmurIO3ZtLGXrtxvP7Vvj1S9obGCwnDyk1BcQNQKColNEASAJd0XmaCTT60WcNhE1am2Iv7W4h2hfGj+rTW8NLzdADMYqACgCBqcLKIPrBUbc8/er2/VhZfcFNbZzNN/B8Cp8KEAoZWEelnw+7c86s7e9bNuXi8ZV+w/SSNDuJgCKdhYixQAyRijGYkQCEiVDD2MoioAs0Dd6P8vSEtlh5Vhd41YACgERLuzgAHnOklZQfPNeyTEO/TDHF84MwONbxA0AIg4zl1flc4yqsS8d4novL05UQeVzsDoEdCvPySBjfmGlYuLcrL+/jP6ec064jDT5qI9AqTDzwAxtSVZWw2grHfO+Wpx7d2XxadsOF402/cbqEXVD5YhTI4GGNfpqzBv7gj88u3p25WBJoDD+fUSF4V0S5RjA1eVvIB0iGCfmGLCTUNNCQAVa5g8qLAhVNJyG7xXMKJ1eZ6QcTIIJlWyAlVSj6FigYQEECECsEjDQQZJ57iqmjqXeus8LfbDuS8UcibRYAABv/SURBVKN+EtEPkoj0NXAEIgqB56qCbEDoRSDyXQ/XUSMROAI/7korNuYbzzrinjcWcp3B1dEnV2sI/S7M2yWZpZAb/QUGkiCBInIpJQ8CzwYsEJBUbqZgpdQrgjAomlbnWN6liIGRFLUHBT8E7EWg6imoKdoPNJJOFzd3tP9swikPpBTvXBUisHmxVUCQEBMQ0QBEmUIQMgjCNERiYmEBhAu3mB0/3VdCoPuM2PhRoUMof5gWo57Ic0DirngSAdMMqMlbi61U+XFHVD+4S/tT04n21pWn9j+wPPOU6GS7qUJYCikJMYUctz+kyiAfKGMG3fRYs5O7VAR5/JmzO+no9NAuAhVFaJTNmw+a+uCNza0KpZ1nRF7TA+cIjUtKRwTEUAQzkYZN+TyAqpEQyx/U2MXfF9Plz+ypRDj/zgFF8cP2Cu4j+V4pFmu9b/11+TD952ecMYdLW395LZww5phuQvAK9RsEQTGAmm0/XVQMhja1QfDk5PaB946pCb25YR8TBRijgBQZClYBVNXIN1KYVSNp037wL6Va7vjJ6N6UBAp/zWRXEHh4XxCCKhmAQhnCkKzyw+hngMMVINJVMv8FkBBEXumJ8agTxiJREbj3OHAZo5KyqcGjv6qNKh/aW6/WNgB4G/UO/t8SvjsG2w5oPNBTlmGja6/Jg849x18JS9gePx5y0ksR1piQNwPPAsZ/WFiGUBD/sUauO2V3ifeF6rOTnQr27B5a5gRi5bmbHUKBLyQYZK7e63IvpkjzwJYXEL2ioGbn8m9we295sfzeMgrnZ5I65Kw8qAm5pOjMTwYi1iDPd3OK+WltQC9/1ew9t6m3eV712AEpEvxfGU8ob9gEPJ4w4EWivRB07rZjEgRKImhEwp+WWvnfnNHEQ7/o6jMvamcaMxD1EhEOIYj8UiYOJ3zuOeYqxKaZgLxVAI8CIN0s2IzMyhcK04fd/ermBVNOa5em0UoceHq5LPFNhbtFLj/sezfd93FzCwQXga1k7pspTAWB0NICzjVNKPBjOYkCJC0rqmW3BUHmmf7Tp38pi7Q7i82O7t1nxMY/8PY1Z57UXRefUXwLiFcEWVdKmfxEViHvoQ/zTBo97I6HWyQFzI+RSa32nI4qvtsIHEP0bcA0BNkwoTHwAFIp2BLimZ99TxjXlAy27+x7N/68v1ysf6bM0CotGs7bBOqYbT/s5kB59fpRHcpDeqcmCCeIlCcvy41uCMscTXtjCwmfrTe9z3d3h9bcd9685pzDyxHco4jQ1aXhCw06vbS54iJcgaPXO8ItKY2eRxHeWGOhC4+6+5FmdxoLrj2vM2ON0xKicoIUgopBYQElK7FmPNngOPfZyd6bmq6IpVi8KjayrFyZHBKrn4rEiLj+hyIVH881wiNErrLLlJqxii7NknFUUqvlegKh5wOSNSjwsAGsu16I7t0cFG/+wd3PlqL/98W1VSIIX5VC5Hdy4EFCUkseOF9WICsrv+h7031/asl3lk8Zc0tZVLxO5YVURKnk7RYphs1E+GG/O5/ebQmqd8aN01SSvbhMQpcKzOqlK4CdMKI+pQXA0jt5Sh8OKXq6Keny/vTtrl2MQ+9yUUO9KfNELkIVRSTvMzzfwtIDzIdnd0bWr0w+q3sSkZvKBOEkDL7JF3nfjwIdp9ZZvvD05pD95Z2yA7i9b2teSpNr3sTze2QEmKAb6OwgdBISFrYSK1ci5rU/fJ+rlL5XCOkTXshmk3Rj/fbkP3/ymPEpmd4o+S5zEb75e7c+tUNRCG5z/Km9epTJgmqFke4Es2gLDVZgzXg9zDlPJiF4n9dDbckY7u49+5TYSoGzHdhf20B0vqxEQIBAhATwuJuab3dF3ckG4W1uFP758OlP1TfdNZVkWvJL06KiHScgd4qIw34Sc0sqArIfAOPSz0oaHCaDI2qP2Go0tiVFK3i7uvfNKIOrZ/EY3hZV4OFbf9n2hGL7YjC8+g3ue23Rc7s7ALxtLQlI5Meg+j5L2c5IfNu3uVcuZdJM6DE7Ug8otmR7Xyri0hdw93YZtvqVLN3WphVXjkwaetkrCPuHcG3nkNnAk0xUioEKBmlk6rs1JPzliDvn7JMCKdv6wNtzUPtwbEphf1YxwQovZO0xoKEKnpr6dENkDmlanm5H2M+rPreqm2ev1FmY8CIfVFWDwLGBGplNy3xj0Ig9DBrmYwJ1ayu0lFAWMt+LVLmmJUnp/DkZVpU5TlAuU+pJBGq36aG1ZP7wk8gb1ZcZyKqvDFmgBXJQb600G1syj/j7+fOL75igWxvX9ZLNRGc/CBJYxkUv8OpA1z57E7oWdhZoznfRdd9T0MirZgYt+V3w+710pKq6SFb3yfotmcMtwWFn9+xTYuMfemfcqLKusviyFOQH8xxEJZGGHI97ktVSOyReUkg1/I15ZwHV9KUERXUqCKJkBe2SSOqUFKVh2UKdLpfJXLsBJBmAuNyrpP7/9E4VeNGThhD/1QrJ1Xsb67K34LX25+dffVK/KjP5oMxoP5/nXGoCNzNyDTEQqFq3yQp+VSgv/1tLfsy7g9V7l59aXimzagMHV2AxAEpDEJgECCUAKVWwwWUnHHzHrP8IldjV+5dNOWN8wnOnJ3QJIs8FCUVQJAA5lHmtzqg4uWkBll29L/77dxuBfU5svLtcE72r7z7bVlb6NVhFSKYSEPkeiAKByC2WjJw5H0EiUw4eV4/lBChgiAjflVIQZREiHJS01VCpyqECIBgQSaa/puBOYem+v2/JLuS7Df13t3V8t1qpkUmI0SkUCVydBpJcoobnZhIu6ywV6yN08KA7n2y23NrOelbaiR2YODbfsGmIrmlLCMHL9QxsrKuzzXRC765EwchKCX4u0qBSkSJwmQsM8awRHXK+BFmi/XHlOnplS3cn29pS0pIj0fxU4PdHPJ1IjoBvw0OBH6eVl2qD1Dkj7py15bs7KnHLdgeBr4XYeAPm/pIbGsn9Zan08VzOWEUEILBAZ6x0plcSlZCzCoBFCgxF3G0MiAtFRlEprsp2eWGYFNBQhHwogGBWvL85whcffdOsr1UKaXfAa433vn7dT3t3ltW/y15xkIgBIowBCwwQ9+RxBZCQQpAof3vBcjJ8d8mF4/XuL0+/uL2M/2JKDAQulhBiLv8TOkKADUVC2C6AGHjAN/hFrwBKMg1WSLiXFywp8U4tMn40Yg/jIudPOa9fG9edX64ImsVyIIgImB+AZJbBxiJdYyH1ippDwpd2dFTippI5S5cKe9Lv1jhXvst9+tqIjXeaOwAqktaVGQFuVJmf1FgIOiVAogi4K4vxrQD1QNZkiCiBbC4L5emykm4aCbiydUl/f5mjJaYtZ1se2RdG++/yYHybbSsVW+6gnd9WiX4nMicFggcyV0UGqZTDmpAVsKMQXDMBX4TCzENvffyq3W0vD9voLLPPUr6b1H2npAbLc32ZJJdKG1LfgXJRKVXK4rr8gqJBwQ8BJSugxvI/3KLIPzn25jl7FRP34YSzz2on47+7NA8YeyASr1R3IF3RCXK2D3nHWSKp6jMFij4OQlrAFOs6Iz0M4h2sMNInxLhjUTL/scU8+NL41LC7M+Cbu/9rJbZt3eAS3qRQd1aFKp2tkrA/CkNJVZVScWUeK1V0HTDK0sAkDPl8jmKk1LEAv5j1yWMNQvs39lXowDcH6/71Je5s6MSE35dL0liJWFzvGgSFgiDAfBSwtEhYbxxGJfWUvKpCHdZHHTL10S+zI1ra2zemnndque8+2RYLgLONoCtc5pqV5G+4zhgXUtS4nj9jpbhBH8kQyDo0ROgJX9OuGFp9P68tuFdXyUEVrrlCx9HdiOQhxWXf/SKE/tYoG0VVgYIAARFB0tLgeREkJQzYbgReR4dIEmxwIrJGSXc+/vZHv8yL3KtGxQ/vcwS+EWL7t51juAhQWZHwWL8yiA6Qg6hKkco0i1C7AEFjI3PXh5q8NMo7679Jqel9jup+9MJXrju2vLNqPia5wrFJQQHkWdxhQ+ry9bdpmfK7sSgviVy3qhxECHgREs1kSzy7w1F3vbRpd7v5zJQx/bojeMN0i5lKXYbQtoCr/XqBD4Img8+LbXNThSCDACpYgFdlBbl6rezO3pe7dR6GMDK/8MwuyeSfUcEyRRaCqArAMAGECRSKFiTSHaA+64KulQHwGgNRDmSJJ4wh8LVE8EWk9T506oNfq6bY7uIb3/9vBL5RYmsKPF89S/+3GyKN8eDtOwSen3xWppdmPa+FhcOVUANJ0CDwA8/x3J8JLnncT+EDzETyYxYGkOCpciCCQ8SFG5w2h+1uEvm2Vr8wcXSPtgidLdHgUBGizjJDGRL5GpGQQGTZiQj7IqToI8D6c1bem9ucbte+QuC9y089oFKXpycl9KMgtBBwzTAeWsSNvEwBwmSgVC6lDvl+FkRdgnzougUmzmTZ9jfsKQb7qv3xe3aMwLdKbPHAfHsIcImmssKWJ2TDPVEmDMxABy8UvHqEzjog1fcZvtisuebUKaqKpga+BSmDF0whkHPYr/v+8bm9zv3lu6aj4Q1UD5VbF7d/XZVQT3c3G2BvUCxJjfcgg4SAnWNI0XE6od00hEXihoIsqtSNokhQ1dqs7y6yJTzP1RIvHDH1oc9bEr+1N+2Kn907BGJi2zv89suneYBo9/ySe9MoOj/HcmAkMhA2UOYIysU9Zs6+j3eqVBPBbfcREp2+ghABCxlEogFbXG3QgN898B+ijvslCE0avTXodayCG+yECVCZlCWNBaEb0WhzVhYdP1UffpOE2xow/Tb7EBPbt4n+t/BtxkBYNPnsy9pQ/x6dFztBFHwmQgDJW3vd8rcp25r00bif9m3DwiW+0FBKmjYiDRqIssQy8eCWZHt8C12LPxkj8CUCMbH9l02GuVeO6tMzoy8MCrVqKqmDxQCykfBPrOCTtyesVdefd18ZK1wgmD64xSIongZ1QmJc7989edd/GWRxd/dDBGJi2w8HbU+bzI+Xnfz2L6chGIGYDYUwhCBVlt9oRd8bcfu/i9e+evlZXbolo+WYbVGYFPDaCpBG7a06ZnQ96F/KIHvahvi5GIFvAoGY2L4JlL8j3/h4yujvdZalT6LCZgDigVpRCSuLdNzA25/+chfGPdWbSO3siGz+qSw5wKhXkmzekpenHTT98etio/l3ZDDjZuwUgZjY/osmyLrrz/0Nsut/lVa4TE0EeY9RS0q36zn9qS918hZedurPqhQ2S9F8QFyrKxQhS9Utm1LtDx5a/Ye9DpD9L4I77uq3iEBMbN8i+N/kp7nXb/3ksx7JSP5o6uZAICEIokHrA7Fb98zgDS82vCclJfHKA1LJW9TIkwp2AxiKDpKrwRbROK3rv+orfJNtjr8VI7CnCMTEtqfI7YfPLb/xnD+nvMIlOvD6CQy4Cjgh6iYiSktcFBysG2rbKJ8tkZ6RzIDj8CpMqV+9s86+JU783g8H/L+4yTGx/RcN/jvXn31qT0V+kmbrQTFk4CUJZa7hihB41IcoikCXFBAVExq90HOIcj02o3vi8I7/oknSSroaE1srGciWdIPXWujhyU+0VcQfu6ELAuPVqXiy+1YpKRGpIAQic6nwfk5SLnlO7r5kZ0qqLflmfE+MwLeBQExs3wbq3+I3ueCi6pNzDUU+VxFJ79BvVBCCEMvmF4WCPw+DMlvRwvnxLu1bHKT403uNQExsew3h/vmCrSlEw3Gi5gCh2P5z9iYMp/HubP8cy7jVX0UgJrZ4VsQIxAi0OgRiYmt1Qxp3KEYgRiAmtngOxAjECLQ6BGJia3VDGncoRiBGICa2eA7ECMQItDoEYmLbT4d0m1ez6l8KtEuXAmlpdgB/lnd7ZwntXFm2Y0eQZdsTpGRasIlH/ZTBOjZsZhvK2wiwFqBrV4CGGpkMnjUrau5dS6tHyXKDJfSa+SIvGLvDi6uOAAyHnVV94u3pnsmgnclx84rjWvusMAf6RrGHdz+d2Puo2TGx7SMgv6nXLK2ulqFh3UnlzBqr4KBPoEWVFop41ZGPauobH8KozZzDZ8zh1Q2bvThBDO7ZuDAgWrs6MIYffftjy5re+M/qn/2gg+3OqRLA1BhGCAizwyIVpIgS4jFJ1YUoxJhQJFDC7BoinnXozDn/2P49748be1kX6t2iR6S23veP7n7vs5uba9A7E39ydJKiJ0OjbX5twT/m1LvuX9v0vpfHXTiko+w9TwW2ar1dcUxzVctmjxolD2pP58ki67kuCIYfOfP5j7+pMYm/891DICa2796Y7LBFC6Zc0k5paJxVqYo/wCLzJAUtjgKnXlaFTM7ND5B0TfcctHg5kU858a4nm60ixXdHB2fxpwSbXdcI8oBhd875tOkHn6u+pHenwJtYxbCqeoFoSkIY0uKhdpDrqaW1T/0omu8iXZNEHSs+C2uoemvfaX9buv17eCBwH9f+e8aPTsvbwSOeqV/UqQnhzp1yWrt2UeFtGSuds6z8nM9XuY83t+tcNOncIRVB4zuyqS9bbcOw5oh7xZUjFZXCIlWJ+qwO0YBDZ74UE9t+NLf3dVNjYtvXiH5N7+PpUAfV2Y93TZUd32jnn7U0dQJo0BhZKhNNT5B90AQgF4iAzltBhSOOmzYn31xTOLENahA/8ZnStV5JD+5759+/Qmz8OV7suqrcx12cCGOhiCK7ODmVkidki43TsFo2rU5XWGSorKzGox1TfX2hupo2/d6K60ZVVlnBuzJDXXJUvmhjlHpk21GydGys2DQ7LYQnuUT+A2vfZUKvq2Y2e2RdMHH0oHbhlreRLH62UZe/P6T6Oafpt5aOGiW362C/L6hh3+UuHTzs7lcXf01DEb92P0AgJrb9YJB4E9+74sRRVdj/m4TkxfVMO3HgXU/nmjadF2nx80uTJ86Y07ijbnFiG5CTPgSc6rEGlCGDdkBs2z+/4vdXKvqajb8xEVzrkuhWN134bbfqN7yWQPfF1WceaoD3SiQJ0eZc4eiD7311MRs1Ci/tmL1K18zpgPTFNYF11Pdvf7a4o/e9O+W0QR2ZNc9z3cUb0j2OHlF9/1e+zYmySlozj8rBwetAGnr0jFc+aUn74ntaJwIxse0H48pL1Z1ReP/JCpn+cHMxuOjg/3ntwT1tNie2HpvpQoTMnnVq5pCWEBv/1saJ59xhBMGEUIDbKzayKcKcOVtLp+/i4ja9IT3xOFXw71CE4OOCbQ/HdtBLTqbmUj1NaiN16KBb/7fZXeO2V8+d+ONBnXAwDwA+XGbjEc0V0+b96lmvvikauN8Sxz/8uHtiYtvV2LTmv8fEth+MLvcuSjZZKQmkPOeRAQN///yKPW02J4DujWiRgs1etbIxZMC0R/7DNraj9667ZvS08pBMihCalqph17eU2Pj7uL2tHco+pQfWiaaAHgotclRCqexc7ytj39vgPrQrb+78yaMGd5ZhnlMsLvw8Eo7ZEbH1qdXfFFTU7wuGjhh897PxUXRPJ0kreC4mtv1gEF//5SnpzgitYSRkdUjtefhOjpq76g4ntm459JGGjF6bJHNQi4lt/OhpbSibVPS92yvqlRbv2La15/3rT+7UXmMfkHyxjSknIPC1BxtNenFLVETeGn/K4M5A36ZUXBRFHY7pNfOrtjjer66ryJupMrP/mkA6fPAfY2Lb1VxozX+PiW0/GN0Pq8emM4WGNToS2fpCdMCQWc9t2dNmc1tUpbHmIw1rvTbJ2qD+tzy2ZFfv4kfhi8JPpyW9YEIgsDvWFdpcv7N4sh2977NJJ52UULVnHC9qzOvlBw6pntWifiy6/twhVVbhLUrlhUug7bHNhXuUvL0N6lwMfr8NkXL4wX/8Z7xj29XAtuK/x8S2HwzuC1eOVHoB/dwEIeMxY2jXe55YvqfVovixNlnIfqwKSs8awRzYf/quiY07Jdo1fnBrGqIJoSJP35xvN2VPiG3x+FGDqwxjgceEZe9ja8AZ1XOClsD/5jU/Hdgbo3cCl3z0ieAOb+4oygk7DZ/MK0sbfda60tBBM1/cqd2uJd+N79l/EYiJbT8YO74baZeXH60C9qPGQnhpj07DH2wuvKIlXeHElinUfCwJcq9NNDmw34xnduk95A6AAe2c29qY8oQG175jXSqYMqL6jagl39v+nsWTzxpcFeIFHhWW2Sl3QEuOofz5lyaM6taHeJ+oSN2ygsJBzcWxvV49XO1hyyspjVI1VO99+IznN+5u++L7Ww8CMbHtJ2O54JofjeokoYeiYrB0U0RGDJn1yg7i1KrFnaUmLbhksNTBMJZISO5ZJyT695n+1C6PojwFq+a6M25PiOGEetebtnCdef2uDP7Nwfpx9TmD2rmw0A3op1YqHNhSYuMxdQegVZ+IQVRlq6nj+86Y837T939wxYgj2umJf9phsH4tpkNPmP6yvZ8MbdzMrwGBmNi+BlC/jlfyAN0+Hno8TcjxNHSetpziuINmvVW77UjKPY+JfN1pQsTOLxTbnDzi/q/GevF28SNbZ3PDMozUbhtA6t+Soyh/bu2kk26XiD3Rw/K07vqhU/Zkxzj/xlMGdxKkDwIrWL42mRnYXDxac9hxG98pdW9e39k0ptQXvA9Qwryg5x1Pr+Z956S7+pof9tIj9CClaICP5SmNbtnv9+So/HWMW/zObweBmNi+Hdz36KsvTTi1qq0gzjKIe4wGns0i+oEgmrUeidKyjIdFJChHirZ5teUfNWLmixua+wg/ipbb0WqM5A6bQOzXb9rfd3kU5eSxasqYGUkMV+eC4O6N2sETdrYr3FHn3vrtqMFVPltgIGVtLS70bS6DYEfPzr9yZLJcYA8lVP0Y2/ccUPAHrmfXVIlqF5HiQwKCtUA0/pHF6Lz+0x+Md2t7NMNaz0Mxse1nY8l3XL6ZO6lSQWPlwO+jEt8MQz9EydTaRkF4JsvQ/UfdOqd+R93i9rqyLYnF5ZrSrjYSjhoyY84uia20Ywpqp2uUXe5i8Z7PP6+btCdH0Zcmnz+4UpJf0xj7ImvnD9lZsn5z7X9n3CgtzdjZKSyMwZHfm4SRLILii7qxqtYL76+r0B5p6S5wPxv2uLm7iUBMbLsJ2Hfldu4pTYsm8rP1rGemUliZrWf1dmXYEsLhu7Z1DZYw8vcvBoIArCV94qoidbAWVUFX2re6ukXezKbv5d7V+nxe6ggb4LDfzfFa+u2vvmesWgW2iJ1Eaf5aukhW98n6Z5zRsmyIlvQ3vmf/RiAmtv17/OLWxwjECDSDQExs8bSIEYgRaHUIxMTW6oY07lCMQIxATGzxHIgRiBFodQjExNbqhjTuUIxAjEBMbPEciBGIEWh1CMTE1uqGNO5QjECMQExs8RyIEYgRaHUIxMTW6oY07lCMQIxATGzxHIgRiBFodQjExNbqhjTuUIxAjEBMbPEciBGIEWh1CMTE1uqGNO5QjECMQExs8RyIEYgRaHUIxMTW6oY07lCMQIxATGzxHIgRiBFodQjExNbqhjTuUIxAjEBMbPEciBGIEWh1CMTE1uqGNO5QjECMQExs8RyIEYgRaHUIxMTW6oY07lCMQIxATGzxHIgRiBFodQjExNbqhjTuUIxAjEBMbPEciBGIEWh1CPw/HrkYUyjetyUAAAAASUVORK5CYII=;" vertex="1" parent="1">
          <mxGeometry x="1232.27" y="890" width="411.95" height="396" as="geometry" />
        </mxCell>
      </root>
    </mxGraphModel>
  </diagram>
</mxfile>
